<?xml version="1.0" encoding="utf-8"?>
<!-- Generator: Adobe Illustrator 23.0.1, SVG Export Plug-In . SVG Version: 6.00 Build 0)  -->
<svg version="1.1" id="Capa_1" xmlns="http://www.w3.org/2000/svg" xmlns:xlink="http://www.w3.org/1999/xlink" x="0px" y="0px"
	 viewBox="0 0 512 512" style="enable-background:new 0 0 512 512;" xml:space="preserve">
<style type="text/css">
	.st0{fill:#1FB1FD;}
	.st1{fill:#339999;}
</style>
<g>
	<path class="st0" d="M277.5,178.7c12.3,10.8,34.4,26.5,58.7,26.5c24.1,0,46.3-15.8,58.7-26.6c-12.3-10.8-34.4-26.5-58.7-26.5
		C312,152.2,289.8,168,277.5,178.7L277.5,178.7z"/>
	<path class="st0" d="M225.6,349.7l30.4,19l30.4-19l-30.4-107L225.6,349.7z"/>
	<path class="st0" d="M256,75.7c26-13.7,53.5-21,80.1-21c17.8,0,36,3.2,53.8,9.5c-4.8-10.9-11.2-20.7-19.5-29.2
		C347.1,11.5,309.6,0,256,0s-91.1,11.5-114.4,35c-8.4,8.4-14.7,18.3-19.5,29.2c17.9-6.2,36.1-9.5,53.8-9.5
		C202.5,54.7,230,61.9,256,75.7z"/>
	<path class="st1" d="M256,157.6c15.4-13.8,45.1-35.4,80.1-35.4c27.7,0,52,13.5,68.6,26c-0.4-16.1-1.6-31.9-4.1-46.8
		c-21.2-10.9-43.3-16.7-64.5-16.7c-23.9,0-49,7.3-72.5,21.1l-7.6,4.4l-7.6-4.4c-23.6-13.8-48.7-21.1-72.5-21.1
		c-21.2,0-43.3,5.7-64.5,16.7c-2.5,14.8-3.6,30.6-4.1,46.8c16.6-12.5,40.9-26,68.6-26C210.9,122.2,240.6,143.7,256,157.6L256,157.6z
		"/>
	<path class="st0" d="M117.2,178.7c12.3,10.8,34.4,26.5,58.7,26.5c24.1,0,46.3-15.8,58.7-26.6c-12.3-10.8-34.4-26.5-58.7-26.5
		C151.8,152.2,129.6,168,117.2,178.7L117.2,178.7z"/>
	<path class="st1" d="M218.4,265.4l13.5-47.6c-15.3,9.4-34.7,17.4-56,17.4c-27.7,0-52.1-13.5-68.7-26c0,1,0,2,0,3
		c0,13.2,1.1,27.8,3.3,43.3c21.5,11.2,43.9,17.1,65.4,17.1C189.9,272.7,204.1,270.2,218.4,265.4L218.4,265.4z"/>
	<path class="st1" d="M336.1,235.2c-21.3,0-40.7-8-56-17.4l13.5,47.6c14.2,4.8,28.5,7.3,42.5,7.3c21.5,0,43.9-5.9,65.4-17.1
		c2.1-15.5,3.3-30.1,3.3-43.3c0-1,0-2,0-3C388.2,221.7,363.8,235.2,336.1,235.2L336.1,235.2z"/>
	<path class="st0" d="M303.2,299.2l18.2,64.1L256,404.1l-65.5-40.9l18.2-64.1c-11,2.3-22,3.5-32.9,3.5c-19.5,0-39.5-3.9-59-11.4
		c8,37.3,20.5,76.7,35.9,111.3c5.5,12.4,11.2,23.8,17.1,34.3h172.2c5.9-10.4,11.6-21.9,17.1-34.3c15.4-34.6,27.9-74,35.9-111.3
		c-19.5,7.5-39.6,11.4-59,11.4C325.2,302.7,314.2,301.5,303.2,299.2L303.2,299.2z"/>
	<path class="st0" d="M256,512c21.8,0,44.9-15.9,66.7-45.2H189.3C211.1,496.1,234.2,512,256,512z"/>
</g>
<g>
	<path class="st0" d="M75.3,375.5H73c-15.3,0-30.3,5.4-42.1,15.1h86.4C105.6,380.9,90.6,375.5,75.3,375.5z"/>
	<path class="st0" d="M75.3,366.9c2.5,0,4.9,0.1,7.4,0.4v-2.6c0-4.7-3.8-8.5-8.5-8.5c-4.7,0-8.5,3.8-8.5,8.5v2.6
		c2.4-0.2,4.9-0.4,7.4-0.4H75.3z"/>
	<path class="st0" d="M134.8,410.3H123c0-0.2,0-0.4,0-0.6v-10.5H25.3v10.5c0,0.2,0,0.4,0,0.6H13.5c-7.1,0-12.9,5.8-12.9,12.9
		s5.8,12.9,12.9,12.9h4c-0.5,2.5-0.9,5.3-0.9,8.5c0,9.1,5.1,15.6,15.5,19.9c1.7,0.7,3.6,1.4,5.7,2l-7.9,33.7l8.4,2l7.8-33.7
		c6.8,1.2,14.7,1.9,23.7,2.1v32.2h8.6v-32.2c9-0.2,16.9-0.9,23.7-2.1l7.8,33.7l8.4-2l-7.9-33.7c2-0.6,3.9-1.3,5.7-2
		c10.4-4.4,15.5-10.9,15.5-19.9c0-3.2-0.3-6-0.9-8.5h4c7.1,0,12.9-5.8,12.9-12.9S142,410.3,134.8,410.3L134.8,410.3z M21.2,425.4
		c-0.3,0.7-0.6,1.4-0.9,2.2h-6.8c-2.4,0-4.3-1.9-4.3-4.3s1.9-4.3,4.3-4.3h10.3C23,421.2,22.1,423.3,21.2,425.4z M134.8,427.6H128
		c-0.3-0.7-0.6-1.4-0.9-2.2c-0.9-2.1-1.8-4.2-2.6-6.5h10.3c2.4,0,4.3,1.9,4.3,4.3S137.2,427.6,134.8,427.6L134.8,427.6z"/>
</g>
<g>
	<g>
		<path class="st0" d="M496.8,9.8c-0.7-0.6-1.5-0.9-2.4-0.8l-55.2,6.1c-1.6,0.2-2.7,1.5-2.7,3v54.6c-2.8-1.7-6-2.5-9.2-2.5
			c-8.4,0-15.3,5.5-15.3,12.3c0,6.8,6.9,12.3,15.3,12.3c8.4,0,15.3-5.5,15.3-12.3V36.3l49-5.5v35.9c-2.8-1.7-6-2.5-9.2-2.5
			c-8.4,0-15.3,5.5-15.3,12.3s6.9,12.3,15.3,12.3c8.4,0,15.3-5.5,15.3-12.3V12.1C497.8,11.2,497.5,10.4,496.8,9.8z"/>
	</g>
</g>
</svg>
