<svg xmlns:xlink="http://www.w3.org/1999/xlink" xmlns="http://www.w3.org/2000/svg" width="64.415" height="75.243" viewBox="0 0 64.415 75.243">
  <g id="events-welcome" transform="translate(-147 -168.757)">
    <ellipse id="Ellipse_484" data-name="Ellipse 484" cx="22" cy="2" rx="22" ry="2" transform="translate(158 240)" fill="#e9e9e9"/>
    <path id="question-solid" d="M32.489,0a7.568,7.568,0,0,0-6.723,3.556.938.938,0,0,0,.2,1.284l1.685,1.278a.937.937,0,0,0,1.3-.162c.978-1.226,1.7-1.932,3.233-1.932,1.2,0,2.688.773,2.688,1.939,0,.881-.727,1.333-1.914,2-1.384.776-3.215,1.741-3.215,4.156V12.5a.937.937,0,0,0,.938.938h2.831a.937.937,0,0,0,.938-.938v-.226c0-1.674,4.893-1.744,4.893-6.274C39.344,2.588,35.8,0,32.489,0ZM32.1,14.588A2.706,2.706,0,1,0,34.8,17.294,2.709,2.709,0,0,0,32.1,14.588Z" transform="translate(147.403 187)" fill="#fcfcfc"/>
    <path id="star-solid" d="M25.533.363,24.157,3.154l-3.08.449A.675.675,0,0,0,20.7,4.754l2.228,2.171-.527,3.067a.674.674,0,0,0,.978.71l2.755-1.448L28.893,10.7a.675.675,0,0,0,.978-.71l-.527-3.067,2.228-2.171A.675.675,0,0,0,31.2,3.6l-3.08-.449L26.743.363a.675.675,0,0,0-1.21,0Z" transform="translate(126.5 168.77)" fill="#1fb1fd"/>
    <path id="star-solid-2" data-name="star-solid" d="M23.363.2,22.58,1.788l-1.752.255a.384.384,0,0,0-.212.655l1.267,1.235-.3,1.745a.383.383,0,0,0,.556.4l1.567-.824,1.567.824a.384.384,0,0,0,.556-.4l-.3-1.745L26.8,2.7a.384.384,0,0,0-.212-.655l-1.752-.255L24.051.2A.384.384,0,0,0,23.363.2Z" transform="translate(184.5 223.424)" fill="#1fb1fd"/>
    <path id="calendar-star-solid" d="M38.3,4.983H33.7V2.532A1.536,1.536,0,0,0,32.171,1H29.107a1.536,1.536,0,0,0-1.532,1.532V4.983H15.319V2.532A1.536,1.536,0,0,0,13.787,1H10.724A1.536,1.536,0,0,0,9.192,2.532V4.983H4.6A4.6,4.6,0,0,0,0,9.579v4.6H42.894v-4.6A4.6,4.6,0,0,0,38.3,4.983ZM0,43.282a4.6,4.6,0,0,0,4.6,4.6H38.3a4.6,4.6,0,0,0,4.6-4.6V17.239H0ZM12.84,29.523l5.237-.766,2.346-4.749a1.148,1.148,0,0,1,2.059,0l2.346,4.749,5.237.766a1.151,1.151,0,0,1,.632,1.963l-3.792,3.7.9,5.228a1.146,1.146,0,0,1-1.666,1.206l-4.692-2.47-4.682,2.47A1.148,1.148,0,0,1,15.1,40.409l.9-5.228-3.792-3.7A1.148,1.148,0,0,1,12.84,29.523Z" transform="translate(158 177.673)" fill="#1fb1fd"/>
  </g>
</svg>