<?xml version="1.0" encoding="utf-8"?>
<!-- Generator: Adobe Illustrator 23.0.1, SVG Export Plug-In . SVG Version: 6.00 Build 0)  -->
<svg version="1.1" id="Capa_1" xmlns="http://www.w3.org/2000/svg" xmlns:xlink="http://www.w3.org/1999/xlink" x="0px" y="0px"
	 viewBox="0 0 512 512" style="enable-background:new 0 0 512 512;" xml:space="preserve">
<style type="text/css">
	.st0{fill:#1FB1FD;}
	.st1{fill:#3399CC;}
	.st2{fill:#E1EEF7;}
	.st3{display:none;}
	.st4{fill:#FFFFFF;}
	.st5{fill:#0099CC;}
</style>
<path class="st0" d="M227.3,104.8l-34.6-64c-8.1-14.9,2.7-33,19.7-33h87.2c16.9,0,27.7,18.1,19.7,33l-34.6,64
	C272.4,127.6,239.6,127.6,227.3,104.8z"/>
<path class="st1" d="M299.6,7.8h-29.1c13.6,0,22.3,26.4,15.8,48.2l-14.5,48.8c-3.4,11.4-9.6,17.1-15.8,17.1
	c11.3,0,22.6-5.7,28.7-17.1l34.6-64C327.4,25.9,316.6,7.8,299.6,7.8z"/>
<path class="st0" d="M256,492.6c43.1,0,83.2,3.9,116.6,10.6c30.9,6.2,59.7-17.5,59.7-49V276.7c0-97.4-78.9-176.3-176.3-176.3l0,0
	c-97.4,0-176.3,78.9-176.3,176.3v177.6c0,31.5,28.8,55.2,59.7,49C172.8,496.5,212.9,492.6,256,492.6z"/>
<path class="st1" d="M256,100.3L256,100.3c80.7,0,146.1,78.9,146.1,176.3v177.6c0,23.9-13.8,43.4-31.6,48.6c0.7,0.1,1.4,0.3,2.1,0.4
	c30.9,6.2,59.7-17.5,59.7-49V276.7C432.3,179.3,353.4,100.3,256,100.3z"/>
<path class="st1" d="M303.4,301.3c-1.5-0.9-3-1.5-4.6-2c1.6-0.5,3.1-1.1,4.6-2c10.5-6.1,14.1-19.5,8.1-30.1
	c-6.1-10.5-19.5-14.1-30.1-8.1c-1.5,0.9-2.8,1.9-4,3c0.4-1.6,0.6-3.3,0.6-5c0-12.2-9.9-22-22-22s-22,9.9-22,22c0,1.7,0.2,3.4,0.6,5
	c-1.2-1.1-2.5-2.1-4-3c-10.5-6.1-24-2.5-30.1,8.1c-6.1,10.5-2.5,24,8.1,30.1c1.5,0.9,3,1.5,4.6,2c-1.6,0.5-3.1,1.1-4.6,2
	c-10.5,6.1-14.1,19.5-8.1,30.1c6.1,10.5,19.5,14.1,30.1,8.1c1.5-0.9,2.8-1.9,4-3c-0.4,1.6-0.6,3.3-0.6,5c0,12.2,9.9,22,22,22
	c12.2,0,22-9.9,22-22c0-1.7-0.2-3.4-0.6-5c1.2,1.1,2.5,2.1,4,3c10.5,6.1,24,2.5,30.1-8.1C317.6,320.9,314,307.4,303.4,301.3z"/>
<circle class="st2" cx="256" cy="299.3" r="18.2"/>
<path class="st3" d="M429.8,215.9c-1.4-4-5.8-6.2-9.9-4.8c-4,1.4-6.2,5.8-4.8,9.9c0.6,1.8,1.2,3.6,1.8,5.5c5,16.2,7.6,33,7.6,50.1
	v177.6c0,12.7-5.6,24.6-15.5,32.7c-9.8,8-22.5,11.2-34.9,8.7c-6.7-1.3-13.6-2.6-20.7-3.7c-4.2-0.7-8.2,2.2-8.9,6.5
	c-0.7,4.2,2.2,8.2,6.5,8.9c6.9,1.1,13.6,2.3,20.1,3.6c3.8,0.8,7.6,1.1,11.4,1.1c13.2,0,26-4.5,36.4-13c13.5-11,21.2-27.3,21.2-44.7
	V276.7c0-18.7-2.8-37.1-8.3-54.7C431.2,219.9,430.5,217.9,429.8,215.9z"/>
<path class="st3" d="M344.3,258.2c0,8.5,3.3,16.5,9.3,22.5c1.5,1.5,3.5,2.3,5.5,2.3s4-0.8,5.5-2.3c3-3,3-7.9,0-11
	c-3.1-3.1-4.8-7.2-4.8-11.6s1.7-8.5,4.8-11.6c0,0,0.1-0.1,0.1-0.1l59.5-61.3c10.2-10.3,15.9-23.9,15.9-38.4
	c0-29.9-24.4-54.3-54.3-54.3h-85.6l26-48.1c5.1-9.4,4.9-20.6-0.6-29.8C320,5.5,310.3,0,299.6,0h-87.2c-10.7,0-20.4,5.5-25.9,14.7
	c-5.5,9.2-5.7,20.3-0.6,29.8l28.6,52.9c-81.5,18.9-142.5,92.1-142.5,179.3v177.6c0,17.4,7.7,33.7,21.2,44.7
	c10.4,8.5,23.2,13,36.4,13c3.8,0,7.6-0.4,11.4-1.1c34.1-6.9,73.8-10.5,115.1-10.5c22,0,43.7,1,64.4,3.1c4.3,0.4,8.1-2.7,8.5-7
	c0.4-4.3-2.7-8.1-7-8.5c-21.2-2.1-43.4-3.1-66-3.1c-42.2,0-83.1,3.7-118.1,10.8c-12.4,2.5-25.1-0.7-34.9-8.7
	c-9.8-8.1-15.5-20-15.5-32.7V276.7c0-77.5,52.6-143,124-162.6c-9.3,9.8-17.8,22.8-25.1,38.7c-1.8,3.9-0.1,8.5,3.8,10.3
	c3.9,1.8,8.5,0.1,10.3-3.8c14.9-32.5,35.1-51.1,55.5-51.1s40.7,18.6,55.5,51.1c1.3,2.9,4.1,4.5,7.1,4.5c1.1,0,2.2-0.2,3.2-0.7
	c3.9-1.8,5.6-6.4,3.8-10.3c-7.3-15.9-15.7-28.9-25-38.6c40.7,11.2,76.3,37.5,98.9,74.2l-46,47.4
	C347.6,241.7,344.3,249.7,344.3,258.2z M199.5,37.1c-2.5-4.6-2.4-10,0.3-14.4c2.7-4.5,7.4-7.1,12.6-7.1h87.2c5.2,0,9.9,2.7,12.6,7.1
	c2.7,4.5,2.8,9.9,0.3,14.4l-30,55.5H256c-8.7,0-17.2,0.6-25.5,1.8L199.5,37.1z M329.8,108.1h56c21.4,0,38.8,17.4,38.8,38.8
	c0,10.4-4,20.1-11.4,27.4c0,0-0.1,0.1-0.1,0.1l-2.4,2.5C390.8,146.2,362.5,122.4,329.8,108.1z"/>
<path class="st4" d="M318.2,263.4c-4-6.9-10.4-11.8-18.1-13.9c-5.1-1.4-10.4-1.4-15.4,0c-3.4-12.7-15-22-28.7-22s-25.3,9.4-28.7,22
	c-5-1.3-10.3-1.4-15.4,0c-7.7,2.1-14.1,7-18.1,13.9c-6.9,11.9-4.6,26.6,4.7,35.9c-9.3,9.3-11.6,24-4.7,35.9
	c6.9,11.9,20.8,17.3,33.5,13.9c2.7,10.2,10.8,18.3,21,21v36.9c0,4.3,3.5,7.8,7.8,7.8s7.8-3.5,7.8-7.8v-36.9
	c10.2-2.8,18.2-10.8,21-21c12.7,3.4,26.6-2,33.5-13.9s4.6-26.6-4.7-35.9C322.8,290,325.1,275.3,318.2,263.4z M296.6,306.8
	c1.1,0.3,2.1,0.8,3,1.3c6.8,3.9,9.1,12.7,5.2,19.5c-3.9,6.8-12.7,9.1-19.5,5.2c-0.9-0.5-1.8-1.2-2.6-2c-2.5-2.3-6.2-2.8-9.2-1.1
	c-3,1.7-4.5,5.1-3.7,8.5c0.3,1.1,0.4,2.2,0.4,3.2c0,7.9-6.4,14.2-14.2,14.2c-7.9,0-14.2-6.4-14.2-14.2c0-1,0.1-2.1,0.4-3.2
	c0.8-3.3-0.7-6.8-3.7-8.5c-1.2-0.7-2.5-1-3.9-1c-1.9,0-3.8,0.7-5.3,2.1c-0.8,0.8-1.7,1.4-2.6,2c-6.8,3.9-15.5,1.6-19.5-5.2
	c-3.9-6.8-1.6-15.5,5.2-19.5c0.9-0.5,1.9-0.9,3-1.3c3.3-1,5.5-4,5.5-7.4c0-3.4-2.2-6.4-5.5-7.4c-1.1-0.3-2.1-0.8-3-1.3
	c-6.8-3.9-9.1-12.7-5.2-19.5c1.9-3.3,5-5.7,8.6-6.6c3.7-1,7.5-0.5,10.8,1.4c0.9,0.5,1.8,1.2,2.6,2c2.5,2.3,6.2,2.8,9.2,1.1
	c3-1.7,4.5-5.1,3.7-8.5c-0.3-1.1-0.4-2.2-0.4-3.2c0-7.9,6.4-14.2,14.2-14.2s14.2,6.4,14.2,14.2c0,1-0.1,2.1-0.4,3.2
	c-0.8,3.3,0.7,6.8,3.7,8.5c3,1.7,6.7,1.3,9.2-1.1c0.8-0.8,1.7-1.4,2.6-2c3.3-1.9,7.1-2.4,10.8-1.4s6.7,3.3,8.6,6.6
	c3.9,6.8,1.6,15.5-5.2,19.5c-0.9,0.5-1.9,0.9-3,1.3c-3.3,1-5.5,4-5.5,7.4C291.1,302.8,293.3,305.8,296.6,306.8z"/>
<path class="st5" d="M256,273.4c-14.3,0-25.9,11.6-25.9,25.9s11.6,25.9,25.9,25.9s25.9-11.6,25.9-25.9S270.3,273.4,256,273.4z
	 M256,309.7c-5.7,0-10.4-4.7-10.4-10.4s4.7-10.4,10.4-10.4s10.4,4.7,10.4,10.4S261.7,309.7,256,309.7z"/>
</svg>
