<?xml version="1.0" encoding="iso-8859-1"?>
<!-- Generator: Adobe Illustrator 19.0.0, SVG Export Plug-In . SVG Version: 6.00 Build 0)  -->
<svg version="1.1" id="Capa_1" xmlns="http://www.w3.org/2000/svg" xmlns:xlink="http://www.w3.org/1999/xlink" x="0px" y="0px"
	 viewBox="0 0 511.998 511.998" style="enable-background:new 0 0 511.998 511.998;" xml:space="preserve">
<path style="fill:#FFD2C0;" d="M325.492,14.702C320.001,5.496,310.325,0,299.607,0h-87.215c-10.718,0-20.395,5.496-25.885,14.702
	c-5.489,9.207-5.725,20.331-0.63,29.761l34.577,63.993c7.172,13.273,20.46,21.197,35.546,21.197
	c15.086,0,28.374-7.924,35.546-21.197l34.577-63.993C331.217,35.034,330.982,23.908,325.492,14.702z"/>
<path style="fill:#F4AE98;" d="M325.492,14.702C320.001,5.496,310.325,0,299.607,0h-22.402c5.212,0,9.917,5.496,12.587,14.702
	c2.67,9.206,2.784,20.331,0.306,29.761l-16.813,63.993c-3.488,13.273-9.948,21.197-17.285,21.197
	c15.086,0,28.374-7.924,35.546-21.197l34.577-63.993C331.217,35.034,330.982,23.908,325.492,14.702z"/>
<path style="fill:#FFD2C0;" d="M255.999,92.581c-101.498,0-184.073,82.575-184.073,184.072v177.586
	c0,17.397,7.72,33.695,21.181,44.714c13.418,10.984,30.852,15.325,47.831,11.901c34.051-6.86,73.838-10.486,115.06-10.486
	s81.01,3.626,115.06,10.486c3.805,0.766,7.631,1.143,11.431,1.143c13.159,0,25.989-4.521,36.4-13.044
	c13.461-11.019,21.181-27.317,21.181-44.714V276.652C440.071,175.155,357.497,92.581,255.999,92.581z"/>
<g>
	<path style="fill:#F4AE98;" d="M255.999,92.581c80.535,0,146.055,82.575,146.055,184.072v177.586
		c0,17.397-6.125,33.695-16.806,44.714c-5.234,5.399-11.238,9.187-17.591,11.242c1.136,0.219,2.281,0.432,3.404,0.659
		c3.805,0.766,7.631,1.143,11.431,1.143c13.159,0,25.989-4.521,36.4-13.044c13.461-11.019,21.181-27.317,21.181-44.714V276.652
		C440.071,175.155,357.497,92.581,255.999,92.581z"/>
	<path style="fill:#F4AE98;" d="M318.579,163.778c-2.944,0-5.757-1.683-7.06-4.536c-14.853-32.504-35.09-51.146-55.52-51.146
		s-40.666,18.642-55.52,51.146c-1.78,3.897-6.382,5.613-10.279,3.831c-3.897-1.78-5.612-6.383-3.831-10.279
		c17.743-38.829,42.473-60.213,69.631-60.213s51.887,21.384,69.631,60.213c1.781,3.896,0.065,8.499-3.831,10.279
		C320.753,163.551,319.657,163.778,318.579,163.778z"/>
</g>
<g>
	<path style="fill:#434259;" d="M359.101,283.044c-1.985,0-3.971-0.757-5.486-2.272c-6.021-6.021-9.337-14.027-9.337-22.542
		c0-8.495,3.301-16.482,9.295-22.498l59.54-61.337c0.027-0.027,0.055-0.055,0.082-0.082c7.326-7.326,11.36-17.067,11.36-27.428
		c0-21.388-17.4-38.788-38.788-38.788h-172.23c-4.285,0-7.758-3.473-7.758-7.758c0-4.284,3.472-7.758,7.758-7.758h172.23
		c29.942,0,54.304,24.36,54.304,54.304c0,14.486-5.632,28.104-15.864,38.357l-59.54,61.336c-0.027,0.027-0.055,0.055-0.082,0.082
		c-3.09,3.091-4.793,7.2-4.793,11.571s1.703,8.48,4.794,11.571c3.03,3.03,3.03,7.942,0,10.97
		C363.072,282.286,361.086,283.044,359.101,283.044z M359.101,241.173h0.01H359.101z"/>
	<path style="fill:#434259;" d="M255.999,414.841c-4.285,0-7.758-3.473-7.758-7.758v-43.664c0-4.284,3.472-7.758,7.758-7.758
		c4.285,0,7.758,3.473,7.758,7.758v43.664C263.756,411.368,260.284,414.841,255.999,414.841z"/>
</g>
<path style="fill:#F4BD7A;" d="M303.443,301.32c-1.491-0.861-3.042-1.505-4.621-1.985c1.578-0.48,3.131-1.125,4.621-1.985
	c10.524-6.076,14.129-19.533,8.053-30.056c-6.076-10.524-19.533-14.129-30.056-8.053c-1.491,0.861-2.825,1.883-4.03,3.009
	c0.373-1.607,0.591-3.274,0.591-4.995c0-12.152-9.851-22.003-22.003-22.003c-12.152,0-22.003,9.851-22.003,22.003
	c0,1.721,0.217,3.387,0.591,4.995c-1.205-1.127-2.539-2.149-4.03-3.009c-10.524-6.076-23.98-2.47-30.056,8.053
	c-6.076,10.524-2.47,23.98,8.053,30.056c1.49,0.861,3.042,1.505,4.621,1.985c-1.578,0.48-3.131,1.125-4.621,1.985
	c-10.524,6.076-14.129,19.533-8.053,30.056c6.076,10.524,19.533,14.129,30.056,8.053c1.491-0.861,2.825-1.883,4.03-3.009
	c-0.373,1.607-0.591,3.274-0.591,4.995c0,12.152,9.851,22.003,22.003,22.003c12.152,0,22.003-9.851,22.003-22.003
	c0-1.721-0.217-3.388-0.591-4.995c1.205,1.127,2.539,2.149,4.03,3.009c10.524,6.076,23.98,2.47,30.056-8.053
	C317.574,320.852,313.968,307.397,303.443,301.32z"/>
<circle style="fill:#E1EEF7;" cx="256.002" cy="299.332" r="18.161"/>
<g>
</g>
<g>
</g>
<g>
</g>
<g>
</g>
<g>
</g>
<g>
</g>
<g>
</g>
<g>
</g>
<g>
</g>
<g>
</g>
<g>
</g>
<g>
</g>
<g>
</g>
<g>
</g>
<g>
</g>
</svg>
