<?xml version="1.0" encoding="utf-8"?>
<!-- Generator: Adobe Illustrator 23.0.1, SVG Export Plug-In . SVG Version: 6.00 Build 0)  -->
<svg version="1.1" id="Capa_1" xmlns="http://www.w3.org/2000/svg" xmlns:xlink="http://www.w3.org/1999/xlink" x="0px" y="0px"
	 viewBox="0 0 370 370" style="enable-background:new 0 0 370 370;" xml:space="preserve">
<style type="text/css">
	.st0{fill:#1FB1FD;}
</style>
<path class="st0" d="M347.3,259.6c-1.2-1.1-2.5-2.2-3.9-3.1c-2.9,3.2-6.3,5.9-10.1,8c-5.9,3.3-12.7,5-19.5,5
	c3.6,1.4,7.6,2.1,11.6,2.1c8.3,0,16.1-3.1,21.9-8.6c0.5-0.4,0.7-1.1,0.7-1.7C348,260.6,347.7,260,347.3,259.6L347.3,259.6z"/>
<path class="st0" d="M267,256.5c-1.4,0.9-2.6,2-3.9,3.1c-0.5,0.4-0.7,1.1-0.7,1.7c0,0.6,0.3,1.2,0.7,1.7c5.9,5.6,13.6,8.6,21.9,8.6
	c4,0,8-0.7,11.6-2.1c-6.9,0-13.6-1.8-19.5-5C273.3,262.3,269.9,259.6,267,256.5L267,256.5z"/>
<path class="st0" d="M279.6,260.3c4.2,2.3,9,3.8,14.2,4.3c-8.9-4.7-13.8-11.2-16-15c-2.5-4.1-4.2-8.6-5-13.3c-2.5,0.1-5,0.5-7.4,1.1
	c-1.1,0.3-1.9,1.2-1.9,2.3c0,0.2,0,0.4,0.1,0.6C266.1,249.4,272.3,256.3,279.6,260.3L279.6,260.3z"/>
<path class="st0" d="M316.6,264.6c5.2-0.4,10-2,14.2-4.3c7.3-4,13.5-10.9,16.1-19.9c0.1-0.2,0.1-0.4,0.1-0.6c0-1.1-0.8-2.1-1.9-2.3
	c-2.4-0.6-4.9-1-7.4-1.1c-0.8,4.7-2.5,9.1-5,13.3C330.3,253.3,325.5,259.9,316.6,264.6L316.6,264.6z"/>
<path class="st0" d="M293.7,258.9c-2.5-3.9-6.5-11.4-6.5-21.6c0-5.2,1-10.2,3-15c-2.7-1.5-5.7-2.6-8.7-3.4c-1.3-0.3-2.7,0.4-3.1,1.7
	c-2.7,9.7-0.8,19.2,3.7,26.6C284.8,251.7,288.8,255.8,293.7,258.9z"/>
<path class="st0" d="M316.7,258.9c4.9-3.1,8.9-7.2,11.6-11.7c4.5-7.4,6.4-16.9,3.7-26.6c-0.4-1.3-1.7-2-3.1-1.7
	c-3.1,0.8-6,1.9-8.7,3.4c2,4.8,3,9.8,3,15C323.1,247.6,319.2,255,316.7,258.9L316.7,258.9z"/>
<path class="st0" d="M307,211.7c-0.5-0.4-1.1-0.7-1.8-0.7c-0.7,0-1.3,0.3-1.8,0.7c-6.6,6.2-11.2,15.3-11.2,25.6
	c0,10.4,4.6,19.4,11.2,25.6c0.5,0.4,1.1,0.7,1.8,0.7c0.7,0,1.3-0.3,1.8-0.7c6.6-6.2,11.2-15.3,11.2-25.6
	C318.1,227,313.5,217.9,307,211.7L307,211.7z"/>
<g>
	<path class="st0" d="M260.4,314.1c-3.3-0.5-5.9-0.9-7.9-1.2c-6.3-0.9-8-1.1-15.4-3.4c-2.9-0.9-14.3-12.4-14.3-34.8
		c0-28.9,6.9-54.4,9.8-64c0.1-0.3,0.3-1,0.5-2c0.5-1.8,4.1-12.7,4.1-12.7c1.9-5.6,3.9-11.3,5.2-17.2l0.1-0.3
		c2-8.5,8.4-39.8,8.9-82.9c0-4.4-3.6-8.1-5.8-10.4c-0.4-0.4-0.7-0.8-1-1.1c-2.1-2.4-4.8-5.4-8-8.9c-2.1-2.3-4.4-4.8-6.9-7.5
		c-4-4.4-8.4-8.4-12.7-12.3c-5.3-4.8-10.7-9.7-15.2-15.3c-6.7-8.3-12.9-22.9-11.8-34.6c0.2-1.8-0.2-3.3-1.2-4.3
		c-1-1.1-2.6-1.5-4-0.9c-1.4-0.6-3-0.2-4,0.9c-0.9,1-1.3,2.5-1.2,4.3c1.1,11.7-5.1,26.3-11.8,34.6c-4.5,5.6-9.9,10.5-15.2,15.3
		c-4.3,3.9-8.7,7.9-12.7,12.3c-2.5,2.8-4.8,5.3-6.9,7.5c-3.2,3.5-5.9,6.4-8,8.9c-0.3,0.3-0.6,0.7-1,1.1c-2.2,2.3-5.8,6.1-5.8,10.4
		c0.5,43.2,6.9,74.4,8.9,82.9l0.1,0.3c1.3,5.9,3.3,11.6,5.2,17.2c0,0,3.6,10.9,4.1,12.7c0.3,1,0.5,1.7,0.5,2
		c2.9,9.6,9.8,35.1,9.8,64c0,22.4-11.4,33.9-14.3,34.8c-7.4,2.3-9.1,2.5-15.4,3.4c-2.1,0.3-4.6,0.6-7.9,1.2
		c-36.2,3.9-40.1,21.8-40.1,29.4c0,2,1,8.6,5.8,14.6c4.3,5.4,12.8,11.9,29.2,11.9c2.5,0,5.1-0.1,7.7-0.4c10.9-1.2,21.9-2.9,32.5-4.6
		c3.9-0.6,7.7-1.2,11.6-1.8c5.1-0.8,14.4-1.3,27.5-1.5c0.6,0,1,0,1.2,0c0.2,0,0.6,0,1.2,0c13.1,0.2,22.4,0.8,27.5,1.5
		c3.9,0.6,7.7,1.2,11.6,1.8c10.6,1.7,21.6,3.5,32.5,4.6c2.7,0.3,5.3,0.4,7.7,0.4c16.4,0,24.9-6.5,29.2-11.9
		c4.8-6.1,5.8-12.6,5.8-14.6C300.5,335.9,296.6,317.9,260.4,314.1z M204.1,167c-0.5,0-1.1-0.1-1.6-0.4c-1.7-0.7-3.8-3.9-4-5.1
		c8.4-5.8,14-16.9,14-29.6c0-18.8-2-34-27.6-34s-27.6,15.2-27.6,34c0,12.7,5.7,23.8,14,29.6c-0.2,1.2-2.4,4.3-4,5.1
		c-0.5,0.2-1,0.4-1.6,0.4c-5.4,0-12.1-11.8-13.9-16.5c-3-8-6.8-21.7-7.6-41.7l0-0.8c-0.2-4.2,6.1-15,7-16.8
		c1.2-2.5,16.2-25.4,20.6-30.8c1.6-1.9,9.6-12.5,13.1-17.2c3.5,4.7,11.5,15.3,13.1,17.2c4.5,5.4,19.5,28.3,20.6,30.8
		c0.8,1.8,7.2,12.6,7,16.8l0,0.8c-0.8,20-4.6,33.7-7.6,41.7C216.3,155.2,209.5,167,204.1,167z"/>
</g>
<path class="st0" d="M103.3,259.8c-1.2-1.2-2.5-2.3-3.9-3.3c-2.9,3.4-6.4,6.2-10.3,8.5c-6,3.5-12.9,5.3-19.8,5.4
	c3.7,1.5,7.7,2.3,11.8,2.3c8.4,0,16.3-3.3,22.3-9.2c0.5-0.5,0.7-1.1,0.7-1.8C104,260.9,103.7,260.2,103.3,259.8L103.3,259.8z"/>
<path class="st0" d="M21.7,256.4c-1.4,1-2.7,2.1-3.9,3.3c-0.5,0.5-0.7,1.1-0.7,1.8s0.3,1.3,0.7,1.8c5.9,5.9,13.8,9.2,22.3,9.2
	c4.1,0,8.1-0.8,11.8-2.3c-7,0-13.8-1.9-19.8-5.4C28.1,262.7,24.7,259.8,21.7,256.4L21.7,256.4z"/>
<path class="st0" d="M34.6,260.5c4.2,2.4,9.2,4.1,14.4,4.6c-9.1-5-14-12-16.3-16c-2.5-4.4-4.3-9.2-5.1-14.2
	c-2.5,0.1-5.1,0.5-7.5,1.1c-1.1,0.3-2,1.3-2,2.5c0,0.2,0,0.4,0.1,0.7C20.8,248.9,27.2,256.2,34.6,260.5L34.6,260.5z"/>
<path class="st0" d="M72.1,265.1c5.2-0.5,10.2-2.1,14.4-4.6c7.4-4.3,13.7-11.6,16.4-21.3c0.1-0.2,0.1-0.4,0.1-0.7
	c0-1.2-0.8-2.2-2-2.5c-2.5-0.7-5-1-7.5-1.1c-0.9,5-2.6,9.8-5.1,14.2C86.1,253.1,81.2,260.1,72.1,265.1L72.1,265.1z"/>
<path class="st0" d="M48.9,259.1c-2.6-4.2-6.6-12.1-6.6-23.1c0-5.5,1-10.9,3-16c-2.8-1.6-5.8-2.8-8.9-3.7c-1.4-0.4-2.8,0.4-3.1,1.8
	c-2.8,10.4-0.8,20.6,3.7,28.5C39.9,251.3,43.9,255.7,48.9,259.1z"/>
<path class="st0" d="M72.2,259.1c5-3.3,9-7.7,11.8-12.5c4.6-7.9,6.5-18.1,3.7-28.5c-0.4-1.4-1.8-2.2-3.1-1.8
	c-3.1,0.8-6.1,2.1-8.9,3.7c2,5.1,3,10.5,3,16C78.8,246.9,74.8,254.9,72.2,259.1L72.2,259.1z"/>
<path class="st0" d="M62.3,208.6c-0.5-0.5-1.1-0.7-1.8-0.7c-0.7,0-1.3,0.3-1.8,0.7c-6.7,6.7-11.3,16.3-11.3,27.4
	c0,11.1,4.7,20.7,11.3,27.4c0.5,0.5,1.1,0.7,1.8,0.7s1.3-0.3,1.8-0.7c6.7-6.7,11.3-16.3,11.3-27.4C73.7,224.9,69,215.3,62.3,208.6
	L62.3,208.6z"/>
</svg>
