<svg width="2722" height="589" viewBox="0 0 2722 589" fill="none" xmlns="http://www.w3.org/2000/svg">
<mask id="path-1-outside-1_190_1650" maskUnits="userSpaceOnUse" x="0" y="0" width="2722" height="589" fill="black">
<rect fill="white" width="2722" height="589"/>
<path d="M8.66863 545.236C5.55621 545.236 4 541.063 4 532.717V530.508C4 525.599 5.344 517.99 8.032 507.681C10.72 496.88 12.064 485.835 12.064 474.544V93.1014C12.064 81.8103 10.72 71.0101 8.032 60.7009C5.344 49.9007 4 42.046 4 37.1369V34.1914C4 26.3367 5.55621 22.4094 8.66863 22.4094H48.352C51.6059 22.4094 53.2328 26.3367 53.2328 34.1914V37.1369C53.2328 42.046 51.7474 49.9007 48.7764 60.7009C45.8055 71.0101 44.32 81.8103 44.32 93.1014V256.577H109.256V93.1014C109.256 81.8103 107.912 71.0101 105.224 60.7009C102.536 49.9007 101.192 42.046 101.192 37.1369V34.1914C101.192 26.3367 102.749 22.4094 105.861 22.4094H145.544C148.798 22.4094 150.425 26.3367 150.425 34.1914V37.1369C150.425 42.046 148.869 49.9007 145.757 60.7009C142.786 71.0101 141.3 81.8103 141.3 93.1014V474.544C141.3 485.835 142.786 496.88 145.757 507.681C148.869 517.99 150.425 525.599 150.425 530.508V532.717C150.425 541.063 148.798 545.236 145.544 545.236H105.861C102.749 545.236 101.192 541.063 101.192 532.717V530.508C101.192 525.599 102.536 517.99 105.224 507.681C107.912 496.88 109.256 485.835 109.256 474.544V305.177H44.32L44.1078 474.544C44.1078 485.835 45.5933 496.88 48.5642 507.681C51.6766 517.99 53.2328 525.599 53.2328 530.508V532.717C53.2328 541.063 51.6059 545.236 48.352 545.236H8.66863Z"/>
<path d="M175.287 545.236C172.033 545.236 170.406 541.063 170.406 532.717V530.508C170.406 525.599 171.75 517.99 174.438 507.681C177.268 496.88 178.682 485.589 178.682 473.807V93.8378C178.682 81.5648 177.268 70.2738 174.438 59.9645C171.75 49.6553 170.406 42.046 170.406 37.1369V34.1914C170.406 26.3367 171.962 22.4094 175.075 22.4094H269.721C273.541 22.4094 275.733 29.2822 276.299 43.0279L281.392 129.184C282.1 141.948 280.685 148.33 277.148 148.33H275.875C273.753 148.33 271.418 144.157 268.872 135.811C266.467 126.975 264.274 117.647 262.293 107.829C260.454 97.5196 258.049 88.1922 255.078 79.8466C252.249 71.0101 249.278 66.5919 246.165 66.5919H219.002C213.343 66.5919 210.514 77.1466 210.514 98.256V256.577H237.889C240.294 256.577 242.346 253.877 244.043 248.477C245.882 242.586 247.226 236.449 248.075 230.067C248.924 223.194 249.914 217.058 251.046 211.658C252.319 205.767 253.522 202.821 254.654 202.821H256.351C258.757 202.821 259.959 207.976 259.959 218.285V336.842C259.959 347.151 258.757 352.305 256.351 352.305H254.654C253.522 352.305 252.319 349.605 251.046 344.205C249.914 338.805 248.924 333.16 248.075 327.269C247.226 320.887 245.882 314.996 244.043 309.596C242.346 304.196 240.294 301.496 237.889 301.496H210.514L210.302 455.398C210.302 467.671 211.221 478.471 213.061 487.799C214.9 496.635 217.729 501.053 221.549 501.053H252.744C255.856 501.053 258.757 496.635 261.445 487.799C264.274 478.962 266.467 469.144 268.023 458.344C269.721 447.543 271.772 437.725 274.177 428.888C276.582 420.052 278.987 415.634 281.392 415.634H283.09C284.505 415.634 285.566 417.597 286.273 421.525C286.981 425.452 287.193 429.87 286.91 434.78L282.241 523.881C281.392 538.118 279.129 545.236 275.45 545.236H175.287Z"/>
<path d="M305.846 545.236C302.734 545.236 301.178 541.063 301.178 532.717V530.508C301.178 525.599 302.522 517.99 305.21 507.681C307.898 496.88 309.242 485.835 309.242 474.544V93.1014C309.242 81.3194 307.898 70.5192 305.21 60.7009C302.522 50.3916 301.178 42.537 301.178 37.1369V34.1914C301.178 26.3367 302.734 22.4094 305.846 22.4094H345.742C349.137 22.4094 350.835 26.3367 350.835 34.1914V37.1369C350.835 42.537 349.279 50.3916 346.166 60.7009C343.195 70.5192 341.71 81.3194 341.71 93.1014V459.08C341.71 470.862 342.417 480.68 343.832 488.535C345.388 496.39 347.652 500.317 350.623 500.317H381.181C384.718 500.317 387.972 495.408 390.943 485.589C393.914 475.28 396.177 464.235 397.733 452.453C399.431 440.67 401.27 429.87 403.251 420.052C405.373 409.743 407.424 404.588 409.405 404.588H411.951C415.064 404.588 416.266 409.988 415.559 420.788L410.042 523.881C409.193 538.118 407 545.236 403.463 545.236H305.846Z"/>
<path d="M432.468 545.236C429.356 545.236 427.799 541.063 427.799 532.717V530.508C427.799 525.599 429.143 517.99 431.831 507.681C434.519 496.88 435.863 485.835 435.863 474.544V93.1014C435.863 81.3194 434.519 70.5192 431.831 60.7009C429.143 50.3916 427.799 42.537 427.799 37.1369V34.1914C427.799 26.3367 429.356 22.4094 432.468 22.4094H472.364C475.759 22.4094 477.457 26.3367 477.457 34.1914V37.1369C477.457 42.537 475.9 50.3916 472.788 60.7009C469.817 70.5192 468.332 81.3194 468.332 93.1014V459.08C468.332 470.862 469.039 480.68 470.454 488.535C472.01 496.39 474.273 500.317 477.244 500.317H507.803C511.34 500.317 514.593 495.408 517.564 485.589C520.535 475.28 522.799 464.235 524.355 452.453C526.053 440.67 527.892 429.87 529.873 420.052C531.995 409.743 534.046 404.588 536.027 404.588H538.573C541.686 404.588 542.888 409.988 542.181 420.788L536.663 523.881C535.814 538.118 533.622 545.236 530.085 545.236H432.468Z"/>
<path d="M621.377 552.6C600.156 552.6 582.33 526.826 567.9 475.28C553.469 423.734 546.254 360.406 546.254 285.295C546.254 205.767 553.116 140.966 566.839 90.8923C580.703 40.3278 598.67 15.0456 620.74 15.0456C641.961 15.0456 659.645 41.3097 673.793 93.8378C687.94 145.875 695.014 210.185 695.014 286.768C695.014 363.842 687.94 427.416 673.793 477.489C659.787 527.563 642.315 552.6 621.377 552.6ZM630.29 504.735C640.051 504.735 647.903 492.217 653.845 467.18C659.787 442.143 662.758 410.234 662.758 371.451C662.758 323.341 660.423 275.722 655.755 228.594C651.086 180.976 644.578 141.457 636.232 110.038C627.885 78.6193 618.901 62.91 609.281 62.91C599.519 62.91 591.738 75.1829 585.938 99.7288C580.279 124.275 577.449 156.921 577.449 197.667C577.449 247.74 579.713 296.341 584.24 343.469C588.909 390.597 595.346 429.379 603.551 459.816C611.757 489.762 620.669 504.735 630.29 504.735Z"/>
<path d="M805.723 4C830.905 4 851.49 28.5458 867.476 77.6375C883.463 126.729 891.456 188.339 891.456 262.468C891.456 312.05 887.283 355.251 878.936 392.07C870.589 428.398 859.059 446.562 844.345 446.562C838.686 446.562 833.24 442.143 828.005 433.307C822.912 424.47 819.092 412.688 816.546 397.961C810.038 430.852 800.276 447.298 787.261 447.298C777.499 447.298 768.94 436.007 761.583 413.425C754.368 390.352 750.761 359.915 750.761 322.114C750.761 268.604 755.5 225.894 764.979 193.985C774.599 161.584 786.624 145.384 801.054 145.384C811.099 145.384 819.163 156.43 825.246 178.521L825.883 165.266C826.024 156.921 827.298 152.748 829.703 152.748H846.255C849.226 152.748 850.358 157.657 849.651 167.475L838.828 344.205C837.838 360.406 838.262 373.66 840.101 383.97C842.082 393.788 844.982 398.697 848.802 398.697C856.158 398.697 861.888 385.688 865.991 359.669C870.235 333.651 872.357 301.987 872.357 264.677C872.357 198.403 865.849 146.366 852.834 108.565C839.96 70.7647 823.054 51.8644 802.115 51.8644C781.885 51.8644 764.201 78.1284 749.063 130.657C733.925 183.185 726.356 246.513 726.356 320.641C726.356 384.461 732.157 436.743 743.758 477.489C755.358 518.235 770.496 538.608 789.171 538.608C800.63 538.608 812.372 530.508 824.398 514.308C826.378 511.853 827.651 512.344 828.217 515.781C828.925 518.726 828.995 523.39 828.43 529.772L826.732 545.236C825.883 553.09 824.185 558.736 821.639 562.172C812.16 577.391 800.418 585 786.412 585C763.635 585 744.748 559.472 729.752 508.417C714.755 456.871 707.257 394.033 707.257 319.905C707.257 280.141 709.521 241.604 714.048 204.294C718.717 166.493 725.154 132.866 733.359 103.411C741.565 73.4647 751.963 49.4098 764.554 31.2459C777.145 13.082 790.868 4 805.723 4ZM793.627 415.634C798.013 415.634 802.115 408.761 805.935 395.015C809.896 381.27 812.585 364.333 813.999 344.205L819.941 249.213C820.507 226.631 819.729 209.203 817.607 196.93C815.485 184.166 812.302 177.785 808.057 177.785C801.125 177.785 794.971 193.739 789.595 225.649C784.219 257.559 781.248 296.095 780.682 341.26C780.541 365.806 781.602 384.461 783.865 397.224C786.27 409.497 789.524 415.634 793.627 415.634Z"/>
<path d="M959.294 93.1014C959.294 81.8103 957.879 71.0101 955.05 60.7009C952.362 49.9007 951.018 42.046 951.018 37.1369V34.1914C951.018 26.3367 952.645 22.4094 955.898 22.4094H995.794C999.048 22.4094 1000.67 26.3367 1000.67 34.1914V37.1369C1000.67 42.046 999.189 49.9007 996.218 60.7009C993.247 71.0101 991.762 81.8103 991.762 93.1014L991.55 326.532C991.408 406.061 987.023 463.498 978.393 498.844C969.763 534.19 957.313 552.109 941.044 552.6C931.989 552.6 924.067 548.427 917.276 540.081C910.627 531.736 905.534 520.69 901.997 506.944C898.46 493.199 895.843 479.453 894.145 465.707C892.589 451.471 891.811 437.48 891.811 423.734C891.811 407.534 893.155 394.524 895.843 384.706C898.531 374.397 902.068 369.242 906.453 369.242C910.981 369.242 914.588 374.151 917.276 383.97C919.964 393.297 921.874 404.834 923.006 418.579C924.138 431.834 925.269 445.334 926.401 459.08C927.533 472.335 929.372 483.871 931.919 493.69C934.607 503.017 938.214 507.681 942.741 507.681C947.976 507.681 952.008 497.371 954.837 476.753C957.808 455.643 959.294 427.17 959.294 391.333V93.1014Z"/>
<path d="M1088.49 552.6C1067.27 552.6 1049.44 526.826 1035.01 475.28C1020.58 423.734 1013.37 360.406 1013.37 285.295C1013.37 205.767 1020.23 140.966 1033.95 90.8923C1047.81 40.3278 1065.78 15.0456 1087.85 15.0456C1109.07 15.0456 1126.76 41.3097 1140.9 93.8378C1155.05 145.875 1162.13 210.185 1162.13 286.768C1162.13 363.842 1155.05 427.416 1140.9 477.489C1126.9 527.563 1109.43 552.6 1088.49 552.6ZM1097.4 504.735C1107.16 504.735 1115.01 492.217 1120.96 467.18C1126.9 442.143 1129.87 410.234 1129.87 371.451C1129.87 323.341 1127.54 275.722 1122.87 228.594C1118.2 180.976 1111.69 141.457 1103.34 110.038C1095 78.6193 1086.01 62.91 1076.39 62.91C1066.63 62.91 1058.85 75.1829 1053.05 99.7288C1047.39 124.275 1044.56 156.921 1044.56 197.667C1044.56 247.74 1046.82 296.341 1051.35 343.469C1056.02 390.597 1062.46 429.379 1070.66 459.816C1078.87 489.762 1087.78 504.735 1097.4 504.735Z"/>
<path d="M1250.34 552.6C1229.12 552.6 1211.29 526.826 1196.86 475.28C1182.43 423.734 1175.22 360.406 1175.22 285.295C1175.22 205.767 1182.08 140.966 1195.8 90.8923C1209.67 40.3278 1227.63 15.0456 1249.7 15.0456C1270.92 15.0456 1288.61 41.3097 1302.76 93.8378C1316.9 145.875 1323.98 210.185 1323.98 286.768C1323.98 363.842 1316.9 427.416 1302.76 477.489C1288.75 527.563 1271.28 552.6 1250.34 552.6ZM1259.25 504.735C1269.02 504.735 1276.87 492.217 1282.81 467.18C1288.75 442.143 1291.72 410.234 1291.72 371.451C1291.72 323.341 1289.39 275.722 1284.72 228.594C1280.05 180.976 1273.54 141.457 1265.2 110.038C1256.85 78.6193 1247.86 62.91 1238.24 62.91C1228.48 62.91 1220.7 75.1829 1214.9 99.7288C1209.24 124.275 1206.41 156.921 1206.41 197.667C1206.41 247.74 1208.68 296.341 1213.2 343.469C1217.87 390.597 1224.31 429.379 1232.51 459.816C1240.72 489.762 1249.63 504.735 1259.25 504.735Z"/>
<path d="M1471.21 473.807C1473.05 484.608 1475.03 493.69 1477.15 501.053C1479.41 508.417 1481.11 514.063 1482.24 517.99C1483.37 521.426 1483.94 525.599 1483.94 530.508V532.717C1483.94 541.063 1482.45 545.236 1479.48 545.236H1434.49C1431.38 545.236 1429.83 541.063 1429.83 532.717V530.508C1429.83 526.09 1430.67 520.935 1432.37 515.044C1434.07 509.153 1435.34 503.999 1436.19 499.581C1437.18 495.162 1437.04 487.799 1435.77 477.489L1401.6 277.932L1379.96 353.778V473.807C1379.96 485.589 1381.44 496.88 1384.41 507.681C1387.53 517.99 1389.08 525.599 1389.08 530.508V532.717C1389.08 541.063 1387.45 545.236 1384.2 545.236H1344.52C1341.4 545.236 1339.85 541.063 1339.85 532.717V530.508C1339.85 525.599 1341.19 517.99 1343.88 507.681C1346.57 496.88 1347.91 485.589 1347.91 473.807V93.1014C1347.91 81.8103 1346.57 71.0101 1343.88 60.7009C1341.19 49.9007 1339.85 42.046 1339.85 37.1369V34.1914C1339.85 26.3367 1341.4 22.4094 1344.52 22.4094H1384.2C1387.45 22.4094 1389.08 26.3367 1389.08 34.1914V37.1369C1389.08 42.046 1387.53 49.9007 1384.41 60.7009C1381.44 71.0101 1379.96 81.8103 1379.96 93.1014V286.032L1434.28 93.8378C1436.12 87.9468 1437.11 82.3012 1437.25 76.9011C1437.54 71.0101 1437.25 66.3464 1436.4 62.91C1435.7 58.9827 1434.85 54.5644 1433.86 49.6552C1433.01 44.7461 1432.58 40.5733 1432.58 37.1369V34.1914C1432.58 26.3367 1434.21 22.4094 1437.47 22.4094H1468.02C1471.14 22.4094 1472.69 26.3367 1472.69 34.1914V37.1369C1472.69 42.046 1471.77 46.9552 1469.93 51.8644C1468.24 56.7736 1465.76 63.1555 1462.51 71.0101C1459.25 78.3739 1456.49 85.9831 1454.23 93.8378L1423.67 200.612L1471.21 473.807Z"/>
<path d="M1494.56 545.236C1491.44 545.236 1489.89 541.063 1489.89 532.717V530.508C1489.89 525.599 1491.23 517.99 1493.92 507.681C1496.61 496.88 1497.95 485.835 1497.95 474.544V93.1014C1497.95 81.8103 1496.61 71.0101 1493.92 60.7009C1491.23 49.9007 1489.89 42.046 1489.89 37.1369V34.1914C1489.89 26.3367 1491.44 22.4094 1494.56 22.4094H1534.24C1537.49 22.4094 1539.12 26.3367 1539.12 34.1914V37.1369C1539.12 42.046 1537.64 49.9007 1534.66 60.7009C1531.69 71.0101 1530.21 81.8103 1530.21 93.1014V256.577H1595.14V93.1014C1595.14 81.8103 1593.8 71.0101 1591.11 60.7009C1588.42 49.9007 1587.08 42.046 1587.08 37.1369V34.1914C1587.08 26.3367 1588.64 22.4094 1591.75 22.4094H1631.43C1634.69 22.4094 1636.31 26.3367 1636.31 34.1914V37.1369C1636.31 42.046 1634.76 49.9007 1631.64 60.7009C1628.67 71.0101 1627.19 81.8103 1627.19 93.1014V474.544C1627.19 485.835 1628.67 496.88 1631.64 507.681C1634.76 517.99 1636.31 525.599 1636.31 530.508V532.717C1636.31 541.063 1634.69 545.236 1631.43 545.236H1591.75C1588.64 545.236 1587.08 541.063 1587.08 532.717V530.508C1587.08 525.599 1588.42 517.99 1591.11 507.681C1593.8 496.88 1595.14 485.835 1595.14 474.544V305.177H1530.21L1530 474.544C1530 485.835 1531.48 496.88 1534.45 507.681C1537.56 517.99 1539.12 525.599 1539.12 530.508V532.717C1539.12 541.063 1537.49 545.236 1534.24 545.236H1494.56Z"/>
<path d="M1782.98 474.544C1784.4 486.326 1786.66 497.126 1789.77 506.944C1793.03 516.763 1794.66 524.617 1794.66 530.508V532.717C1794.66 541.063 1793.1 545.236 1789.99 545.236H1743.51C1740.4 545.236 1738.84 541.063 1738.84 532.717V530.508C1738.84 525.599 1739.76 520.69 1741.6 515.781C1743.58 510.381 1745.28 504.49 1746.7 498.108C1748.11 491.235 1748.32 483.38 1747.33 474.544L1740.97 415.634H1681.76L1675.61 474.544C1674.62 483.38 1674.83 491.235 1676.24 498.108C1677.66 504.49 1679.28 510.381 1681.12 515.781C1683.1 520.69 1684.09 525.599 1684.09 530.508V532.717C1684.09 541.063 1682.47 545.236 1679.21 545.236H1651.41C1648.3 545.236 1646.74 541.063 1646.74 532.717V530.508C1646.74 524.617 1648.3 517.008 1651.41 507.681C1654.53 497.862 1656.79 486.817 1658.2 474.544L1700.43 98.256C1701.57 87.9468 1700.58 75.9193 1697.46 62.1736C1694.49 48.428 1693.01 40.0824 1693.01 37.1369V34.1914C1693.01 26.3367 1694.42 22.4094 1697.25 22.4094H1719.32C1725.26 22.4094 1729.58 32.9641 1732.27 54.0735L1782.98 474.544ZM1686.85 367.769H1735.87L1711.04 138.757L1686.85 367.769Z"/>
<path d="M1808.52 545.236C1805.27 545.236 1803.64 541.063 1803.64 532.717V530.508C1803.64 525.599 1804.98 517.99 1807.67 507.681C1810.5 496.88 1811.92 485.835 1811.92 474.544V93.1014C1811.92 81.3194 1810.5 70.2738 1807.67 59.9645C1804.98 49.6553 1803.64 42.046 1803.64 37.1369V34.1914C1803.64 26.3367 1805.2 22.4094 1808.31 22.4094H1904.44C1908.26 22.4094 1910.45 29.5277 1911.02 43.7642L1916.11 129.92C1916.82 142.684 1915.33 149.066 1911.65 149.066H1910.59C1908.47 149.066 1906.14 144.893 1903.59 136.548C1901.19 127.711 1898.99 118.384 1897.01 108.565C1895.17 98.256 1892.77 88.9286 1889.8 80.583C1886.83 71.7465 1883.78 67.3282 1880.67 67.3282H1852.66C1847.14 67.3282 1844.38 77.6375 1844.38 98.256V277.932H1872.82C1874.8 277.932 1876.64 275.232 1878.34 269.831C1880.18 263.94 1881.59 257.559 1882.58 250.686C1883.57 243.813 1884.7 237.676 1885.98 232.276C1887.25 226.385 1888.52 223.44 1889.8 223.44H1891.49C1893.9 223.44 1895.1 228.84 1895.1 239.64V358.196C1895.1 368.506 1893.9 373.66 1891.49 373.66H1889.8C1888.52 373.66 1887.25 370.96 1885.98 365.56C1884.7 360.16 1883.57 354.269 1882.58 347.887C1881.59 341.505 1880.18 335.614 1878.34 330.214C1876.64 324.814 1874.8 322.114 1872.82 322.114H1844.38V474.544C1844.38 485.835 1845.87 496.88 1848.84 507.681C1851.95 517.99 1853.51 525.599 1853.51 530.508V532.717C1853.51 541.063 1851.81 545.236 1848.42 545.236H1808.52Z"/>
<path d="M1997.64 552.6C1976.42 552.6 1958.59 526.826 1944.16 475.28C1929.73 423.734 1922.51 360.406 1922.51 285.295C1922.51 205.767 1929.38 140.966 1943.1 90.8923C1956.96 40.3278 1974.93 15.0456 1997 15.0456C2018.22 15.0456 2035.91 41.3097 2050.05 93.8378C2064.2 145.875 2071.27 210.185 2071.27 286.768C2071.27 363.842 2064.2 427.416 2050.05 477.489C2036.05 527.563 2018.57 552.6 1997.64 552.6ZM2006.55 504.735C2016.31 504.735 2024.16 492.217 2030.1 467.18C2036.05 442.143 2039.02 410.234 2039.02 371.451C2039.02 323.341 2036.68 275.722 2032.01 228.594C2027.35 180.976 2020.84 141.457 2012.49 110.038C2004.14 78.6193 1995.16 62.91 1985.54 62.91C1975.78 62.91 1968 75.1829 1962.2 99.7288C1956.54 124.275 1953.71 156.921 1953.71 197.667C1953.71 247.74 1955.97 296.341 1960.5 343.469C1965.17 390.597 1971.61 429.379 1979.81 459.816C1988.02 489.762 1996.93 504.735 2006.55 504.735Z"/>
<path d="M2207.26 474.544C2209.09 484.362 2211.29 492.953 2213.83 500.317C2216.52 507.19 2218.64 512.835 2220.2 517.254C2221.76 521.181 2222.53 525.599 2222.53 530.508V532.717C2222.53 541.063 2220.91 545.236 2217.65 545.236H2173.3C2170.19 545.236 2168.63 541.063 2168.63 532.717V530.508C2168.63 526.09 2169.41 521.181 2170.97 515.781C2172.67 509.89 2173.8 504.735 2174.36 500.317C2175.07 495.408 2174.72 486.817 2173.3 474.544L2151.02 346.414L2127.68 347.887V474.544C2127.68 485.835 2129.16 496.88 2132.13 507.681C2135.25 517.99 2136.8 525.599 2136.8 530.508V532.717C2136.8 541.063 2135.1 545.236 2131.71 545.236H2091.81C2088.7 545.236 2087.14 541.063 2087.14 532.717V530.508C2087.14 525.599 2088.49 517.99 2091.18 507.681C2093.86 496.88 2095.21 485.835 2095.21 474.544V93.1014C2095.21 81.8103 2093.86 71.0101 2091.18 60.7009C2088.49 49.9007 2087.14 42.046 2087.14 37.1369V34.1914C2087.14 26.3367 2088.7 22.4094 2091.81 22.4094H2144.23C2163.89 22.4094 2179.46 36.4005 2190.92 64.3827C2202.52 92.365 2208.39 133.357 2208.53 187.357C2208.53 217.303 2205.98 245.04 2200.89 270.568C2195.94 295.605 2188.79 314.996 2179.46 328.741L2207.26 474.544ZM2139.56 302.968H2148.69C2156.75 302.968 2163.19 294.377 2168 277.195C2172.95 259.522 2175.42 233.749 2175.42 199.876C2175.42 159.621 2172.03 127.466 2165.24 103.411C2158.59 79.3557 2150.88 67.3282 2142.11 67.3282H2134.89C2130.08 67.3282 2127.68 78.3739 2127.68 100.465V253.631C2127.68 271.304 2128.6 284.068 2130.44 291.923C2132.42 299.286 2135.46 302.968 2139.56 302.968Z"/>
<path d="M2249.19 552.6C2243.53 552.6 2238.86 547.445 2235.18 537.136C2231.5 526.335 2229.66 511.117 2229.66 491.48C2229.66 471.844 2231.5 456.871 2235.18 446.562C2238.86 435.761 2243.53 430.361 2249.19 430.361C2254.7 430.361 2259.3 435.761 2262.98 446.562C2266.66 456.871 2268.5 471.844 2268.5 491.48C2268.5 511.117 2266.66 526.335 2262.98 537.136C2259.3 547.445 2254.7 552.6 2249.19 552.6Z"/>
<path d="M2290.97 545.236C2287.71 545.236 2286.09 541.063 2286.09 532.717V530.508C2286.09 525.599 2287.43 517.99 2290.12 507.681C2292.95 496.88 2294.36 485.835 2294.36 474.544V93.1014C2294.36 81.8103 2292.95 71.0101 2290.12 60.7009C2287.43 49.9007 2286.09 42.046 2286.09 37.1369V34.1914C2286.09 26.3367 2287.71 22.4094 2290.97 22.4094H2339.35C2367.08 22.4094 2389.29 46.9552 2405.99 96.0469C2422.68 145.139 2431.03 207.976 2431.03 284.559C2431.03 363.106 2423.46 426.188 2408.32 473.807C2393.32 521.426 2373.66 545.236 2349.33 545.236H2290.97ZM2341.69 500.317H2352.51C2365.81 500.317 2376.63 485.344 2384.98 455.398C2393.47 425.452 2397.71 384.215 2397.71 331.687C2397.71 258.54 2391.98 196.194 2380.52 144.648C2369.2 93.1014 2355.2 67.3282 2338.5 67.3282H2334.47C2328.81 67.3282 2325.98 77.6375 2325.98 98.256V436.989C2325.98 457.116 2327.33 472.826 2330.01 484.117C2332.84 494.917 2336.73 500.317 2341.69 500.317Z"/>
<path d="M2451.16 545.236C2447.91 545.236 2446.28 541.063 2446.28 532.717V530.508C2446.28 525.599 2447.63 517.99 2450.31 507.681C2453.14 496.88 2454.56 485.589 2454.56 473.807V93.8378C2454.56 81.5648 2453.14 70.2738 2450.31 59.9645C2447.63 49.6553 2446.28 42.046 2446.28 37.1369V34.1914C2446.28 26.3367 2447.84 22.4094 2450.95 22.4094H2545.6C2549.42 22.4094 2551.61 29.2822 2552.17 43.0279L2557.27 129.184C2557.97 141.948 2556.56 148.33 2553.02 148.33H2551.75C2549.63 148.33 2547.29 144.157 2544.75 135.811C2542.34 126.975 2540.15 117.647 2538.17 107.829C2536.33 97.5196 2533.92 88.1922 2530.95 79.8466C2528.12 71.0101 2525.15 66.5919 2522.04 66.5919H2494.88C2489.22 66.5919 2486.39 77.1466 2486.39 98.256V256.577H2513.76C2516.17 256.577 2518.22 253.877 2519.92 248.477C2521.76 242.586 2523.1 236.449 2523.95 230.067C2524.8 223.194 2525.79 217.058 2526.92 211.658C2528.19 205.767 2529.4 202.821 2530.53 202.821H2532.23C2534.63 202.821 2535.83 207.976 2535.83 218.285V336.842C2535.83 347.151 2534.63 352.305 2532.23 352.305H2530.53C2529.4 352.305 2528.19 349.605 2526.92 344.205C2525.79 338.805 2524.8 333.16 2523.95 327.269C2523.1 320.887 2521.76 314.996 2519.92 309.596C2518.22 304.196 2516.17 301.496 2513.76 301.496H2486.39L2486.18 455.398C2486.18 467.671 2487.1 478.471 2488.94 487.799C2490.77 496.635 2493.6 501.053 2497.42 501.053H2528.62C2531.73 501.053 2534.63 496.635 2537.32 487.799C2540.15 478.962 2542.34 469.144 2543.9 458.344C2545.6 447.543 2547.65 437.725 2550.05 428.888C2552.46 420.052 2554.86 415.634 2557.27 415.634H2558.96C2560.38 415.634 2561.44 417.597 2562.15 421.525C2562.86 425.452 2563.07 429.87 2562.78 434.78L2558.12 523.881C2557.27 538.118 2555 545.236 2551.33 545.236H2451.16Z"/>
<path d="M2713.12 22.4094C2716.37 22.4094 2718 26.3367 2718 34.1914V37.1369C2718 42.537 2716.44 49.9007 2713.33 59.2281C2710.22 68.5555 2707.88 79.8466 2706.33 93.1014L2655.4 514.308C2652.85 534.927 2648.61 545.236 2642.67 545.236C2637.57 545.236 2633.75 535.663 2631.21 516.517L2574.97 93.8378C2573.41 81.5648 2571.08 70.5192 2567.97 60.7009C2565 50.8825 2563.51 43.0279 2563.51 37.1369V34.1914C2563.51 26.3367 2565.21 22.4094 2568.6 22.4094H2616.14C2619.39 22.4094 2621.02 26.3367 2621.02 34.1914V37.1369C2621.02 41.0642 2620.38 45.237 2619.11 49.6552C2617.84 53.5826 2616.56 57.2645 2615.29 60.7009C2614.02 64.1373 2612.96 68.801 2612.11 74.692C2611.4 80.583 2611.47 86.9649 2612.32 93.8378L2651.58 422.261L2688.71 93.1014C2689.71 84.2649 2689.42 76.6557 2687.87 70.2737C2686.31 63.4009 2684.47 57.2645 2682.35 51.8644C2680.37 46.4643 2679.38 41.5551 2679.38 37.1369V34.1914C2679.38 26.3367 2681 22.4094 2684.26 22.4094H2713.12Z"/>
</mask>
<path d="M8.66863 545.236C5.55621 545.236 4 541.063 4 532.717V530.508C4 525.599 5.344 517.99 8.032 507.681C10.72 496.88 12.064 485.835 12.064 474.544V93.1014C12.064 81.8103 10.72 71.0101 8.032 60.7009C5.344 49.9007 4 42.046 4 37.1369V34.1914C4 26.3367 5.55621 22.4094 8.66863 22.4094H48.352C51.6059 22.4094 53.2328 26.3367 53.2328 34.1914V37.1369C53.2328 42.046 51.7474 49.9007 48.7764 60.7009C45.8055 71.0101 44.32 81.8103 44.32 93.1014V256.577H109.256V93.1014C109.256 81.8103 107.912 71.0101 105.224 60.7009C102.536 49.9007 101.192 42.046 101.192 37.1369V34.1914C101.192 26.3367 102.749 22.4094 105.861 22.4094H145.544C148.798 22.4094 150.425 26.3367 150.425 34.1914V37.1369C150.425 42.046 148.869 49.9007 145.757 60.7009C142.786 71.0101 141.3 81.8103 141.3 93.1014V474.544C141.3 485.835 142.786 496.88 145.757 507.681C148.869 517.99 150.425 525.599 150.425 530.508V532.717C150.425 541.063 148.798 545.236 145.544 545.236H105.861C102.749 545.236 101.192 541.063 101.192 532.717V530.508C101.192 525.599 102.536 517.99 105.224 507.681C107.912 496.88 109.256 485.835 109.256 474.544V305.177H44.32L44.1078 474.544C44.1078 485.835 45.5933 496.88 48.5642 507.681C51.6766 517.99 53.2328 525.599 53.2328 530.508V532.717C53.2328 541.063 51.6059 545.236 48.352 545.236H8.66863Z" fill="black"/>
<path d="M175.287 545.236C172.033 545.236 170.406 541.063 170.406 532.717V530.508C170.406 525.599 171.75 517.99 174.438 507.681C177.268 496.88 178.682 485.589 178.682 473.807V93.8378C178.682 81.5648 177.268 70.2738 174.438 59.9645C171.75 49.6553 170.406 42.046 170.406 37.1369V34.1914C170.406 26.3367 171.962 22.4094 175.075 22.4094H269.721C273.541 22.4094 275.733 29.2822 276.299 43.0279L281.392 129.184C282.1 141.948 280.685 148.33 277.148 148.33H275.875C273.753 148.33 271.418 144.157 268.872 135.811C266.467 126.975 264.274 117.647 262.293 107.829C260.454 97.5196 258.049 88.1922 255.078 79.8466C252.249 71.0101 249.278 66.5919 246.165 66.5919H219.002C213.343 66.5919 210.514 77.1466 210.514 98.256V256.577H237.889C240.294 256.577 242.346 253.877 244.043 248.477C245.882 242.586 247.226 236.449 248.075 230.067C248.924 223.194 249.914 217.058 251.046 211.658C252.319 205.767 253.522 202.821 254.654 202.821H256.351C258.757 202.821 259.959 207.976 259.959 218.285V336.842C259.959 347.151 258.757 352.305 256.351 352.305H254.654C253.522 352.305 252.319 349.605 251.046 344.205C249.914 338.805 248.924 333.16 248.075 327.269C247.226 320.887 245.882 314.996 244.043 309.596C242.346 304.196 240.294 301.496 237.889 301.496H210.514L210.302 455.398C210.302 467.671 211.221 478.471 213.061 487.799C214.9 496.635 217.729 501.053 221.549 501.053H252.744C255.856 501.053 258.757 496.635 261.445 487.799C264.274 478.962 266.467 469.144 268.023 458.344C269.721 447.543 271.772 437.725 274.177 428.888C276.582 420.052 278.987 415.634 281.392 415.634H283.09C284.505 415.634 285.566 417.597 286.273 421.525C286.981 425.452 287.193 429.87 286.91 434.78L282.241 523.881C281.392 538.118 279.129 545.236 275.45 545.236H175.287Z" fill="black"/>
<path d="M305.846 545.236C302.734 545.236 301.178 541.063 301.178 532.717V530.508C301.178 525.599 302.522 517.99 305.21 507.681C307.898 496.88 309.242 485.835 309.242 474.544V93.1014C309.242 81.3194 307.898 70.5192 305.21 60.7009C302.522 50.3916 301.178 42.537 301.178 37.1369V34.1914C301.178 26.3367 302.734 22.4094 305.846 22.4094H345.742C349.137 22.4094 350.835 26.3367 350.835 34.1914V37.1369C350.835 42.537 349.279 50.3916 346.166 60.7009C343.195 70.5192 341.71 81.3194 341.71 93.1014V459.08C341.71 470.862 342.417 480.68 343.832 488.535C345.388 496.39 347.652 500.317 350.623 500.317H381.181C384.718 500.317 387.972 495.408 390.943 485.589C393.914 475.28 396.177 464.235 397.733 452.453C399.431 440.67 401.27 429.87 403.251 420.052C405.373 409.743 407.424 404.588 409.405 404.588H411.951C415.064 404.588 416.266 409.988 415.559 420.788L410.042 523.881C409.193 538.118 407 545.236 403.463 545.236H305.846Z" fill="black"/>
<path d="M432.468 545.236C429.356 545.236 427.799 541.063 427.799 532.717V530.508C427.799 525.599 429.143 517.99 431.831 507.681C434.519 496.88 435.863 485.835 435.863 474.544V93.1014C435.863 81.3194 434.519 70.5192 431.831 60.7009C429.143 50.3916 427.799 42.537 427.799 37.1369V34.1914C427.799 26.3367 429.356 22.4094 432.468 22.4094H472.364C475.759 22.4094 477.457 26.3367 477.457 34.1914V37.1369C477.457 42.537 475.9 50.3916 472.788 60.7009C469.817 70.5192 468.332 81.3194 468.332 93.1014V459.08C468.332 470.862 469.039 480.68 470.454 488.535C472.01 496.39 474.273 500.317 477.244 500.317H507.803C511.34 500.317 514.593 495.408 517.564 485.589C520.535 475.28 522.799 464.235 524.355 452.453C526.053 440.67 527.892 429.87 529.873 420.052C531.995 409.743 534.046 404.588 536.027 404.588H538.573C541.686 404.588 542.888 409.988 542.181 420.788L536.663 523.881C535.814 538.118 533.622 545.236 530.085 545.236H432.468Z" fill="black"/>
<path d="M621.377 552.6C600.156 552.6 582.33 526.826 567.9 475.28C553.469 423.734 546.254 360.406 546.254 285.295C546.254 205.767 553.116 140.966 566.839 90.8923C580.703 40.3278 598.67 15.0456 620.74 15.0456C641.961 15.0456 659.645 41.3097 673.793 93.8378C687.94 145.875 695.014 210.185 695.014 286.768C695.014 363.842 687.94 427.416 673.793 477.489C659.787 527.563 642.315 552.6 621.377 552.6ZM630.29 504.735C640.051 504.735 647.903 492.217 653.845 467.18C659.787 442.143 662.758 410.234 662.758 371.451C662.758 323.341 660.423 275.722 655.755 228.594C651.086 180.976 644.578 141.457 636.232 110.038C627.885 78.6193 618.901 62.91 609.281 62.91C599.519 62.91 591.738 75.1829 585.938 99.7288C580.279 124.275 577.449 156.921 577.449 197.667C577.449 247.74 579.713 296.341 584.24 343.469C588.909 390.597 595.346 429.379 603.551 459.816C611.757 489.762 620.669 504.735 630.29 504.735Z" fill="black"/>
<path d="M805.723 4C830.905 4 851.49 28.5458 867.476 77.6375C883.463 126.729 891.456 188.339 891.456 262.468C891.456 312.05 887.283 355.251 878.936 392.07C870.589 428.398 859.059 446.562 844.345 446.562C838.686 446.562 833.24 442.143 828.005 433.307C822.912 424.47 819.092 412.688 816.546 397.961C810.038 430.852 800.276 447.298 787.261 447.298C777.499 447.298 768.94 436.007 761.583 413.425C754.368 390.352 750.761 359.915 750.761 322.114C750.761 268.604 755.5 225.894 764.979 193.985C774.599 161.584 786.624 145.384 801.054 145.384C811.099 145.384 819.163 156.43 825.246 178.521L825.883 165.266C826.024 156.921 827.298 152.748 829.703 152.748H846.255C849.226 152.748 850.358 157.657 849.651 167.475L838.828 344.205C837.838 360.406 838.262 373.66 840.101 383.97C842.082 393.788 844.982 398.697 848.802 398.697C856.158 398.697 861.888 385.688 865.991 359.669C870.235 333.651 872.357 301.987 872.357 264.677C872.357 198.403 865.849 146.366 852.834 108.565C839.96 70.7647 823.054 51.8644 802.115 51.8644C781.885 51.8644 764.201 78.1284 749.063 130.657C733.925 183.185 726.356 246.513 726.356 320.641C726.356 384.461 732.157 436.743 743.758 477.489C755.358 518.235 770.496 538.608 789.171 538.608C800.63 538.608 812.372 530.508 824.398 514.308C826.378 511.853 827.651 512.344 828.217 515.781C828.925 518.726 828.995 523.39 828.43 529.772L826.732 545.236C825.883 553.09 824.185 558.736 821.639 562.172C812.16 577.391 800.418 585 786.412 585C763.635 585 744.748 559.472 729.752 508.417C714.755 456.871 707.257 394.033 707.257 319.905C707.257 280.141 709.521 241.604 714.048 204.294C718.717 166.493 725.154 132.866 733.359 103.411C741.565 73.4647 751.963 49.4098 764.554 31.2459C777.145 13.082 790.868 4 805.723 4ZM793.627 415.634C798.013 415.634 802.115 408.761 805.935 395.015C809.896 381.27 812.585 364.333 813.999 344.205L819.941 249.213C820.507 226.631 819.729 209.203 817.607 196.93C815.485 184.166 812.302 177.785 808.057 177.785C801.125 177.785 794.971 193.739 789.595 225.649C784.219 257.559 781.248 296.095 780.682 341.26C780.541 365.806 781.602 384.461 783.865 397.224C786.27 409.497 789.524 415.634 793.627 415.634Z" fill="black"/>
<path d="M959.294 93.1014C959.294 81.8103 957.879 71.0101 955.05 60.7009C952.362 49.9007 951.018 42.046 951.018 37.1369V34.1914C951.018 26.3367 952.645 22.4094 955.898 22.4094H995.794C999.048 22.4094 1000.67 26.3367 1000.67 34.1914V37.1369C1000.67 42.046 999.189 49.9007 996.218 60.7009C993.247 71.0101 991.762 81.8103 991.762 93.1014L991.55 326.532C991.408 406.061 987.023 463.498 978.393 498.844C969.763 534.19 957.313 552.109 941.044 552.6C931.989 552.6 924.067 548.427 917.276 540.081C910.627 531.736 905.534 520.69 901.997 506.944C898.46 493.199 895.843 479.453 894.145 465.707C892.589 451.471 891.811 437.48 891.811 423.734C891.811 407.534 893.155 394.524 895.843 384.706C898.531 374.397 902.068 369.242 906.453 369.242C910.981 369.242 914.588 374.151 917.276 383.97C919.964 393.297 921.874 404.834 923.006 418.579C924.138 431.834 925.269 445.334 926.401 459.08C927.533 472.335 929.372 483.871 931.919 493.69C934.607 503.017 938.214 507.681 942.741 507.681C947.976 507.681 952.008 497.371 954.837 476.753C957.808 455.643 959.294 427.17 959.294 391.333V93.1014Z" fill="black"/>
<path d="M1088.49 552.6C1067.27 552.6 1049.44 526.826 1035.01 475.28C1020.58 423.734 1013.37 360.406 1013.37 285.295C1013.37 205.767 1020.23 140.966 1033.95 90.8923C1047.81 40.3278 1065.78 15.0456 1087.85 15.0456C1109.07 15.0456 1126.76 41.3097 1140.9 93.8378C1155.05 145.875 1162.13 210.185 1162.13 286.768C1162.13 363.842 1155.05 427.416 1140.9 477.489C1126.9 527.563 1109.43 552.6 1088.49 552.6ZM1097.4 504.735C1107.16 504.735 1115.01 492.217 1120.96 467.18C1126.9 442.143 1129.87 410.234 1129.87 371.451C1129.87 323.341 1127.54 275.722 1122.87 228.594C1118.2 180.976 1111.69 141.457 1103.34 110.038C1095 78.6193 1086.01 62.91 1076.39 62.91C1066.63 62.91 1058.85 75.1829 1053.05 99.7288C1047.39 124.275 1044.56 156.921 1044.56 197.667C1044.56 247.74 1046.82 296.341 1051.35 343.469C1056.02 390.597 1062.46 429.379 1070.66 459.816C1078.87 489.762 1087.78 504.735 1097.4 504.735Z" fill="black"/>
<path d="M1250.34 552.6C1229.12 552.6 1211.29 526.826 1196.86 475.28C1182.43 423.734 1175.22 360.406 1175.22 285.295C1175.22 205.767 1182.08 140.966 1195.8 90.8923C1209.67 40.3278 1227.63 15.0456 1249.7 15.0456C1270.92 15.0456 1288.61 41.3097 1302.76 93.8378C1316.9 145.875 1323.98 210.185 1323.98 286.768C1323.98 363.842 1316.9 427.416 1302.76 477.489C1288.75 527.563 1271.28 552.6 1250.34 552.6ZM1259.25 504.735C1269.02 504.735 1276.87 492.217 1282.81 467.18C1288.75 442.143 1291.72 410.234 1291.72 371.451C1291.72 323.341 1289.39 275.722 1284.72 228.594C1280.05 180.976 1273.54 141.457 1265.2 110.038C1256.85 78.6193 1247.86 62.91 1238.24 62.91C1228.48 62.91 1220.7 75.1829 1214.9 99.7288C1209.24 124.275 1206.41 156.921 1206.41 197.667C1206.41 247.74 1208.68 296.341 1213.2 343.469C1217.87 390.597 1224.31 429.379 1232.51 459.816C1240.72 489.762 1249.63 504.735 1259.25 504.735Z" fill="black"/>
<path d="M1471.21 473.807C1473.05 484.608 1475.03 493.69 1477.15 501.053C1479.41 508.417 1481.11 514.063 1482.24 517.99C1483.37 521.426 1483.94 525.599 1483.94 530.508V532.717C1483.94 541.063 1482.45 545.236 1479.48 545.236H1434.49C1431.38 545.236 1429.83 541.063 1429.83 532.717V530.508C1429.83 526.09 1430.67 520.935 1432.37 515.044C1434.07 509.153 1435.34 503.999 1436.19 499.581C1437.18 495.162 1437.04 487.799 1435.77 477.489L1401.6 277.932L1379.96 353.778V473.807C1379.96 485.589 1381.44 496.88 1384.41 507.681C1387.53 517.99 1389.08 525.599 1389.08 530.508V532.717C1389.08 541.063 1387.45 545.236 1384.2 545.236H1344.52C1341.4 545.236 1339.85 541.063 1339.85 532.717V530.508C1339.85 525.599 1341.19 517.99 1343.88 507.681C1346.57 496.88 1347.91 485.589 1347.91 473.807V93.1014C1347.91 81.8103 1346.57 71.0101 1343.88 60.7009C1341.19 49.9007 1339.85 42.046 1339.85 37.1369V34.1914C1339.85 26.3367 1341.4 22.4094 1344.52 22.4094H1384.2C1387.45 22.4094 1389.08 26.3367 1389.08 34.1914V37.1369C1389.08 42.046 1387.53 49.9007 1384.41 60.7009C1381.44 71.0101 1379.96 81.8103 1379.96 93.1014V286.032L1434.28 93.8378C1436.12 87.9468 1437.11 82.3012 1437.25 76.9011C1437.54 71.0101 1437.25 66.3464 1436.4 62.91C1435.7 58.9827 1434.85 54.5644 1433.86 49.6552C1433.01 44.7461 1432.58 40.5733 1432.58 37.1369V34.1914C1432.58 26.3367 1434.21 22.4094 1437.47 22.4094H1468.02C1471.14 22.4094 1472.69 26.3367 1472.69 34.1914V37.1369C1472.69 42.046 1471.77 46.9552 1469.93 51.8644C1468.24 56.7736 1465.76 63.1555 1462.51 71.0101C1459.25 78.3739 1456.49 85.9831 1454.23 93.8378L1423.67 200.612L1471.21 473.807Z" fill="black"/>
<path d="M1494.56 545.236C1491.44 545.236 1489.89 541.063 1489.89 532.717V530.508C1489.89 525.599 1491.23 517.99 1493.92 507.681C1496.61 496.88 1497.95 485.835 1497.95 474.544V93.1014C1497.95 81.8103 1496.61 71.0101 1493.92 60.7009C1491.23 49.9007 1489.89 42.046 1489.89 37.1369V34.1914C1489.89 26.3367 1491.44 22.4094 1494.56 22.4094H1534.24C1537.49 22.4094 1539.12 26.3367 1539.12 34.1914V37.1369C1539.12 42.046 1537.64 49.9007 1534.66 60.7009C1531.69 71.0101 1530.21 81.8103 1530.21 93.1014V256.577H1595.14V93.1014C1595.14 81.8103 1593.8 71.0101 1591.11 60.7009C1588.42 49.9007 1587.08 42.046 1587.08 37.1369V34.1914C1587.08 26.3367 1588.64 22.4094 1591.75 22.4094H1631.43C1634.69 22.4094 1636.31 26.3367 1636.31 34.1914V37.1369C1636.31 42.046 1634.76 49.9007 1631.64 60.7009C1628.67 71.0101 1627.19 81.8103 1627.19 93.1014V474.544C1627.19 485.835 1628.67 496.88 1631.64 507.681C1634.76 517.99 1636.31 525.599 1636.31 530.508V532.717C1636.31 541.063 1634.69 545.236 1631.43 545.236H1591.75C1588.64 545.236 1587.08 541.063 1587.08 532.717V530.508C1587.08 525.599 1588.42 517.99 1591.11 507.681C1593.8 496.88 1595.14 485.835 1595.14 474.544V305.177H1530.21L1530 474.544C1530 485.835 1531.48 496.88 1534.45 507.681C1537.56 517.99 1539.12 525.599 1539.12 530.508V532.717C1539.12 541.063 1537.49 545.236 1534.24 545.236H1494.56Z" fill="black"/>
<path d="M1782.98 474.544C1784.4 486.326 1786.66 497.126 1789.77 506.944C1793.03 516.763 1794.66 524.617 1794.66 530.508V532.717C1794.66 541.063 1793.1 545.236 1789.99 545.236H1743.51C1740.4 545.236 1738.84 541.063 1738.84 532.717V530.508C1738.84 525.599 1739.76 520.69 1741.6 515.781C1743.58 510.381 1745.28 504.49 1746.7 498.108C1748.11 491.235 1748.32 483.38 1747.33 474.544L1740.97 415.634H1681.76L1675.61 474.544C1674.62 483.38 1674.83 491.235 1676.24 498.108C1677.66 504.49 1679.28 510.381 1681.12 515.781C1683.1 520.69 1684.09 525.599 1684.09 530.508V532.717C1684.09 541.063 1682.47 545.236 1679.21 545.236H1651.41C1648.3 545.236 1646.74 541.063 1646.74 532.717V530.508C1646.74 524.617 1648.3 517.008 1651.41 507.681C1654.53 497.862 1656.79 486.817 1658.2 474.544L1700.43 98.256C1701.57 87.9468 1700.58 75.9193 1697.46 62.1736C1694.49 48.428 1693.01 40.0824 1693.01 37.1369V34.1914C1693.01 26.3367 1694.42 22.4094 1697.25 22.4094H1719.32C1725.26 22.4094 1729.58 32.9641 1732.27 54.0735L1782.98 474.544ZM1686.85 367.769H1735.87L1711.04 138.757L1686.85 367.769Z" fill="black"/>
<path d="M1808.52 545.236C1805.27 545.236 1803.64 541.063 1803.64 532.717V530.508C1803.64 525.599 1804.98 517.99 1807.67 507.681C1810.5 496.88 1811.92 485.835 1811.92 474.544V93.1014C1811.92 81.3194 1810.5 70.2738 1807.67 59.9645C1804.98 49.6553 1803.64 42.046 1803.64 37.1369V34.1914C1803.64 26.3367 1805.2 22.4094 1808.31 22.4094H1904.44C1908.26 22.4094 1910.45 29.5277 1911.02 43.7642L1916.11 129.92C1916.82 142.684 1915.33 149.066 1911.65 149.066H1910.59C1908.47 149.066 1906.14 144.893 1903.59 136.548C1901.19 127.711 1898.99 118.384 1897.01 108.565C1895.17 98.256 1892.77 88.9286 1889.8 80.583C1886.83 71.7465 1883.78 67.3282 1880.67 67.3282H1852.66C1847.14 67.3282 1844.38 77.6375 1844.38 98.256V277.932H1872.82C1874.8 277.932 1876.64 275.232 1878.34 269.831C1880.18 263.94 1881.59 257.559 1882.58 250.686C1883.57 243.813 1884.7 237.676 1885.98 232.276C1887.25 226.385 1888.52 223.44 1889.8 223.44H1891.49C1893.9 223.44 1895.1 228.84 1895.1 239.64V358.196C1895.1 368.506 1893.9 373.66 1891.49 373.66H1889.8C1888.52 373.66 1887.25 370.96 1885.98 365.56C1884.7 360.16 1883.57 354.269 1882.58 347.887C1881.59 341.505 1880.18 335.614 1878.34 330.214C1876.64 324.814 1874.8 322.114 1872.82 322.114H1844.38V474.544C1844.38 485.835 1845.87 496.88 1848.84 507.681C1851.95 517.99 1853.51 525.599 1853.51 530.508V532.717C1853.51 541.063 1851.81 545.236 1848.42 545.236H1808.52Z" fill="black"/>
<path d="M1997.64 552.6C1976.42 552.6 1958.59 526.826 1944.16 475.28C1929.73 423.734 1922.51 360.406 1922.51 285.295C1922.51 205.767 1929.38 140.966 1943.1 90.8923C1956.96 40.3278 1974.93 15.0456 1997 15.0456C2018.22 15.0456 2035.91 41.3097 2050.05 93.8378C2064.2 145.875 2071.27 210.185 2071.27 286.768C2071.27 363.842 2064.2 427.416 2050.05 477.489C2036.05 527.563 2018.57 552.6 1997.64 552.6ZM2006.55 504.735C2016.31 504.735 2024.16 492.217 2030.1 467.18C2036.05 442.143 2039.02 410.234 2039.02 371.451C2039.02 323.341 2036.68 275.722 2032.01 228.594C2027.35 180.976 2020.84 141.457 2012.49 110.038C2004.14 78.6193 1995.16 62.91 1985.54 62.91C1975.78 62.91 1968 75.1829 1962.2 99.7288C1956.54 124.275 1953.71 156.921 1953.71 197.667C1953.71 247.74 1955.97 296.341 1960.5 343.469C1965.17 390.597 1971.61 429.379 1979.81 459.816C1988.02 489.762 1996.93 504.735 2006.55 504.735Z" fill="black"/>
<path d="M2207.26 474.544C2209.09 484.362 2211.29 492.953 2213.83 500.317C2216.52 507.19 2218.64 512.835 2220.2 517.254C2221.76 521.181 2222.53 525.599 2222.53 530.508V532.717C2222.53 541.063 2220.91 545.236 2217.65 545.236H2173.3C2170.19 545.236 2168.63 541.063 2168.63 532.717V530.508C2168.63 526.09 2169.41 521.181 2170.97 515.781C2172.67 509.89 2173.8 504.735 2174.36 500.317C2175.07 495.408 2174.72 486.817 2173.3 474.544L2151.02 346.414L2127.68 347.887V474.544C2127.68 485.835 2129.16 496.88 2132.13 507.681C2135.25 517.99 2136.8 525.599 2136.8 530.508V532.717C2136.8 541.063 2135.1 545.236 2131.71 545.236H2091.81C2088.7 545.236 2087.14 541.063 2087.14 532.717V530.508C2087.14 525.599 2088.49 517.99 2091.18 507.681C2093.86 496.88 2095.21 485.835 2095.21 474.544V93.1014C2095.21 81.8103 2093.86 71.0101 2091.18 60.7009C2088.49 49.9007 2087.14 42.046 2087.14 37.1369V34.1914C2087.14 26.3367 2088.7 22.4094 2091.81 22.4094H2144.23C2163.89 22.4094 2179.46 36.4005 2190.92 64.3827C2202.52 92.365 2208.39 133.357 2208.53 187.357C2208.53 217.303 2205.98 245.04 2200.89 270.568C2195.94 295.605 2188.79 314.996 2179.46 328.741L2207.26 474.544ZM2139.56 302.968H2148.69C2156.75 302.968 2163.19 294.377 2168 277.195C2172.95 259.522 2175.42 233.749 2175.42 199.876C2175.42 159.621 2172.03 127.466 2165.24 103.411C2158.59 79.3557 2150.88 67.3282 2142.11 67.3282H2134.89C2130.08 67.3282 2127.68 78.3739 2127.68 100.465V253.631C2127.68 271.304 2128.6 284.068 2130.44 291.923C2132.42 299.286 2135.46 302.968 2139.56 302.968Z" fill="black"/>
<path d="M2249.19 552.6C2243.53 552.6 2238.86 547.445 2235.18 537.136C2231.5 526.335 2229.66 511.117 2229.66 491.48C2229.66 471.844 2231.5 456.871 2235.18 446.562C2238.86 435.761 2243.53 430.361 2249.19 430.361C2254.7 430.361 2259.3 435.761 2262.98 446.562C2266.66 456.871 2268.5 471.844 2268.5 491.48C2268.5 511.117 2266.66 526.335 2262.98 537.136C2259.3 547.445 2254.7 552.6 2249.19 552.6Z" fill="black"/>
<path d="M2290.97 545.236C2287.71 545.236 2286.09 541.063 2286.09 532.717V530.508C2286.09 525.599 2287.43 517.99 2290.12 507.681C2292.95 496.88 2294.36 485.835 2294.36 474.544V93.1014C2294.36 81.8103 2292.95 71.0101 2290.12 60.7009C2287.43 49.9007 2286.09 42.046 2286.09 37.1369V34.1914C2286.09 26.3367 2287.71 22.4094 2290.97 22.4094H2339.35C2367.08 22.4094 2389.29 46.9552 2405.99 96.0469C2422.68 145.139 2431.03 207.976 2431.03 284.559C2431.03 363.106 2423.46 426.188 2408.32 473.807C2393.32 521.426 2373.66 545.236 2349.33 545.236H2290.97ZM2341.69 500.317H2352.51C2365.81 500.317 2376.63 485.344 2384.98 455.398C2393.47 425.452 2397.71 384.215 2397.71 331.687C2397.71 258.54 2391.98 196.194 2380.52 144.648C2369.2 93.1014 2355.2 67.3282 2338.5 67.3282H2334.47C2328.81 67.3282 2325.98 77.6375 2325.98 98.256V436.989C2325.98 457.116 2327.33 472.826 2330.01 484.117C2332.84 494.917 2336.73 500.317 2341.69 500.317Z" fill="black"/>
<path d="M2451.16 545.236C2447.91 545.236 2446.28 541.063 2446.28 532.717V530.508C2446.28 525.599 2447.63 517.99 2450.31 507.681C2453.14 496.88 2454.56 485.589 2454.56 473.807V93.8378C2454.56 81.5648 2453.14 70.2738 2450.31 59.9645C2447.63 49.6553 2446.28 42.046 2446.28 37.1369V34.1914C2446.28 26.3367 2447.84 22.4094 2450.95 22.4094H2545.6C2549.42 22.4094 2551.61 29.2822 2552.17 43.0279L2557.27 129.184C2557.97 141.948 2556.56 148.33 2553.02 148.33H2551.75C2549.63 148.33 2547.29 144.157 2544.75 135.811C2542.34 126.975 2540.15 117.647 2538.17 107.829C2536.33 97.5196 2533.92 88.1922 2530.95 79.8466C2528.12 71.0101 2525.15 66.5919 2522.04 66.5919H2494.88C2489.22 66.5919 2486.39 77.1466 2486.39 98.256V256.577H2513.76C2516.17 256.577 2518.22 253.877 2519.92 248.477C2521.76 242.586 2523.1 236.449 2523.95 230.067C2524.8 223.194 2525.79 217.058 2526.92 211.658C2528.19 205.767 2529.4 202.821 2530.53 202.821H2532.23C2534.63 202.821 2535.83 207.976 2535.83 218.285V336.842C2535.83 347.151 2534.63 352.305 2532.23 352.305H2530.53C2529.4 352.305 2528.19 349.605 2526.92 344.205C2525.79 338.805 2524.8 333.16 2523.95 327.269C2523.1 320.887 2521.76 314.996 2519.92 309.596C2518.22 304.196 2516.17 301.496 2513.76 301.496H2486.39L2486.18 455.398C2486.18 467.671 2487.1 478.471 2488.94 487.799C2490.77 496.635 2493.6 501.053 2497.42 501.053H2528.62C2531.73 501.053 2534.63 496.635 2537.32 487.799C2540.15 478.962 2542.34 469.144 2543.9 458.344C2545.6 447.543 2547.65 437.725 2550.05 428.888C2552.46 420.052 2554.86 415.634 2557.27 415.634H2558.96C2560.38 415.634 2561.44 417.597 2562.15 421.525C2562.86 425.452 2563.07 429.87 2562.78 434.78L2558.12 523.881C2557.27 538.118 2555 545.236 2551.33 545.236H2451.16Z" fill="black"/>
<path d="M2713.12 22.4094C2716.37 22.4094 2718 26.3367 2718 34.1914V37.1369C2718 42.537 2716.44 49.9007 2713.33 59.2281C2710.22 68.5555 2707.88 79.8466 2706.33 93.1014L2655.4 514.308C2652.85 534.927 2648.61 545.236 2642.67 545.236C2637.57 545.236 2633.75 535.663 2631.21 516.517L2574.97 93.8378C2573.41 81.5648 2571.08 70.5192 2567.97 60.7009C2565 50.8825 2563.51 43.0279 2563.51 37.1369V34.1914C2563.51 26.3367 2565.21 22.4094 2568.6 22.4094H2616.14C2619.39 22.4094 2621.02 26.3367 2621.02 34.1914V37.1369C2621.02 41.0642 2620.38 45.237 2619.11 49.6552C2617.84 53.5826 2616.56 57.2645 2615.29 60.7009C2614.02 64.1373 2612.96 68.801 2612.11 74.692C2611.4 80.583 2611.47 86.9649 2612.32 93.8378L2651.58 422.261L2688.71 93.1014C2689.71 84.2649 2689.42 76.6557 2687.87 70.2737C2686.31 63.4009 2684.47 57.2645 2682.35 51.8644C2680.37 46.4643 2679.38 41.5551 2679.38 37.1369V34.1914C2679.38 26.3367 2681 22.4094 2684.26 22.4094H2713.12Z" fill="black"/>
<path d="M8.66863 545.236C5.55621 545.236 4 541.063 4 532.717V530.508C4 525.599 5.344 517.99 8.032 507.681C10.72 496.88 12.064 485.835 12.064 474.544V93.1014C12.064 81.8103 10.72 71.0101 8.032 60.7009C5.344 49.9007 4 42.046 4 37.1369V34.1914C4 26.3367 5.55621 22.4094 8.66863 22.4094H48.352C51.6059 22.4094 53.2328 26.3367 53.2328 34.1914V37.1369C53.2328 42.046 51.7474 49.9007 48.7764 60.7009C45.8055 71.0101 44.32 81.8103 44.32 93.1014V256.577H109.256V93.1014C109.256 81.8103 107.912 71.0101 105.224 60.7009C102.536 49.9007 101.192 42.046 101.192 37.1369V34.1914C101.192 26.3367 102.749 22.4094 105.861 22.4094H145.544C148.798 22.4094 150.425 26.3367 150.425 34.1914V37.1369C150.425 42.046 148.869 49.9007 145.757 60.7009C142.786 71.0101 141.3 81.8103 141.3 93.1014V474.544C141.3 485.835 142.786 496.88 145.757 507.681C148.869 517.99 150.425 525.599 150.425 530.508V532.717C150.425 541.063 148.798 545.236 145.544 545.236H105.861C102.749 545.236 101.192 541.063 101.192 532.717V530.508C101.192 525.599 102.536 517.99 105.224 507.681C107.912 496.88 109.256 485.835 109.256 474.544V305.177H44.32L44.1078 474.544C44.1078 485.835 45.5933 496.88 48.5642 507.681C51.6766 517.99 53.2328 525.599 53.2328 530.508V532.717C53.2328 541.063 51.6059 545.236 48.352 545.236H8.66863Z" stroke="black" stroke-width="8" mask="url(#path-1-outside-1_190_1650)"/>
<path d="M175.287 545.236C172.033 545.236 170.406 541.063 170.406 532.717V530.508C170.406 525.599 171.75 517.99 174.438 507.681C177.268 496.88 178.682 485.589 178.682 473.807V93.8378C178.682 81.5648 177.268 70.2738 174.438 59.9645C171.75 49.6553 170.406 42.046 170.406 37.1369V34.1914C170.406 26.3367 171.962 22.4094 175.075 22.4094H269.721C273.541 22.4094 275.733 29.2822 276.299 43.0279L281.392 129.184C282.1 141.948 280.685 148.33 277.148 148.33H275.875C273.753 148.33 271.418 144.157 268.872 135.811C266.467 126.975 264.274 117.647 262.293 107.829C260.454 97.5196 258.049 88.1922 255.078 79.8466C252.249 71.0101 249.278 66.5919 246.165 66.5919H219.002C213.343 66.5919 210.514 77.1466 210.514 98.256V256.577H237.889C240.294 256.577 242.346 253.877 244.043 248.477C245.882 242.586 247.226 236.449 248.075 230.067C248.924 223.194 249.914 217.058 251.046 211.658C252.319 205.767 253.522 202.821 254.654 202.821H256.351C258.757 202.821 259.959 207.976 259.959 218.285V336.842C259.959 347.151 258.757 352.305 256.351 352.305H254.654C253.522 352.305 252.319 349.605 251.046 344.205C249.914 338.805 248.924 333.16 248.075 327.269C247.226 320.887 245.882 314.996 244.043 309.596C242.346 304.196 240.294 301.496 237.889 301.496H210.514L210.302 455.398C210.302 467.671 211.221 478.471 213.061 487.799C214.9 496.635 217.729 501.053 221.549 501.053H252.744C255.856 501.053 258.757 496.635 261.445 487.799C264.274 478.962 266.467 469.144 268.023 458.344C269.721 447.543 271.772 437.725 274.177 428.888C276.582 420.052 278.987 415.634 281.392 415.634H283.09C284.505 415.634 285.566 417.597 286.273 421.525C286.981 425.452 287.193 429.87 286.91 434.78L282.241 523.881C281.392 538.118 279.129 545.236 275.45 545.236H175.287Z" stroke="black" stroke-width="8" mask="url(#path-1-outside-1_190_1650)"/>
<path d="M305.846 545.236C302.734 545.236 301.178 541.063 301.178 532.717V530.508C301.178 525.599 302.522 517.99 305.21 507.681C307.898 496.88 309.242 485.835 309.242 474.544V93.1014C309.242 81.3194 307.898 70.5192 305.21 60.7009C302.522 50.3916 301.178 42.537 301.178 37.1369V34.1914C301.178 26.3367 302.734 22.4094 305.846 22.4094H345.742C349.137 22.4094 350.835 26.3367 350.835 34.1914V37.1369C350.835 42.537 349.279 50.3916 346.166 60.7009C343.195 70.5192 341.71 81.3194 341.71 93.1014V459.08C341.71 470.862 342.417 480.68 343.832 488.535C345.388 496.39 347.652 500.317 350.623 500.317H381.181C384.718 500.317 387.972 495.408 390.943 485.589C393.914 475.28 396.177 464.235 397.733 452.453C399.431 440.67 401.27 429.87 403.251 420.052C405.373 409.743 407.424 404.588 409.405 404.588H411.951C415.064 404.588 416.266 409.988 415.559 420.788L410.042 523.881C409.193 538.118 407 545.236 403.463 545.236H305.846Z" stroke="black" stroke-width="8" mask="url(#path-1-outside-1_190_1650)"/>
<path d="M432.468 545.236C429.356 545.236 427.799 541.063 427.799 532.717V530.508C427.799 525.599 429.143 517.99 431.831 507.681C434.519 496.88 435.863 485.835 435.863 474.544V93.1014C435.863 81.3194 434.519 70.5192 431.831 60.7009C429.143 50.3916 427.799 42.537 427.799 37.1369V34.1914C427.799 26.3367 429.356 22.4094 432.468 22.4094H472.364C475.759 22.4094 477.457 26.3367 477.457 34.1914V37.1369C477.457 42.537 475.9 50.3916 472.788 60.7009C469.817 70.5192 468.332 81.3194 468.332 93.1014V459.08C468.332 470.862 469.039 480.68 470.454 488.535C472.01 496.39 474.273 500.317 477.244 500.317H507.803C511.34 500.317 514.593 495.408 517.564 485.589C520.535 475.28 522.799 464.235 524.355 452.453C526.053 440.67 527.892 429.87 529.873 420.052C531.995 409.743 534.046 404.588 536.027 404.588H538.573C541.686 404.588 542.888 409.988 542.181 420.788L536.663 523.881C535.814 538.118 533.622 545.236 530.085 545.236H432.468Z" stroke="black" stroke-width="8" mask="url(#path-1-outside-1_190_1650)"/>
<path d="M621.377 552.6C600.156 552.6 582.33 526.826 567.9 475.28C553.469 423.734 546.254 360.406 546.254 285.295C546.254 205.767 553.116 140.966 566.839 90.8923C580.703 40.3278 598.67 15.0456 620.74 15.0456C641.961 15.0456 659.645 41.3097 673.793 93.8378C687.94 145.875 695.014 210.185 695.014 286.768C695.014 363.842 687.94 427.416 673.793 477.489C659.787 527.563 642.315 552.6 621.377 552.6ZM630.29 504.735C640.051 504.735 647.903 492.217 653.845 467.18C659.787 442.143 662.758 410.234 662.758 371.451C662.758 323.341 660.423 275.722 655.755 228.594C651.086 180.976 644.578 141.457 636.232 110.038C627.885 78.6193 618.901 62.91 609.281 62.91C599.519 62.91 591.738 75.1829 585.938 99.7288C580.279 124.275 577.449 156.921 577.449 197.667C577.449 247.74 579.713 296.341 584.24 343.469C588.909 390.597 595.346 429.379 603.551 459.816C611.757 489.762 620.669 504.735 630.29 504.735Z" stroke="black" stroke-width="8" mask="url(#path-1-outside-1_190_1650)"/>
<path d="M805.723 4C830.905 4 851.49 28.5458 867.476 77.6375C883.463 126.729 891.456 188.339 891.456 262.468C891.456 312.05 887.283 355.251 878.936 392.07C870.589 428.398 859.059 446.562 844.345 446.562C838.686 446.562 833.24 442.143 828.005 433.307C822.912 424.47 819.092 412.688 816.546 397.961C810.038 430.852 800.276 447.298 787.261 447.298C777.499 447.298 768.94 436.007 761.583 413.425C754.368 390.352 750.761 359.915 750.761 322.114C750.761 268.604 755.5 225.894 764.979 193.985C774.599 161.584 786.624 145.384 801.054 145.384C811.099 145.384 819.163 156.43 825.246 178.521L825.883 165.266C826.024 156.921 827.298 152.748 829.703 152.748H846.255C849.226 152.748 850.358 157.657 849.651 167.475L838.828 344.205C837.838 360.406 838.262 373.66 840.101 383.97C842.082 393.788 844.982 398.697 848.802 398.697C856.158 398.697 861.888 385.688 865.991 359.669C870.235 333.651 872.357 301.987 872.357 264.677C872.357 198.403 865.849 146.366 852.834 108.565C839.96 70.7647 823.054 51.8644 802.115 51.8644C781.885 51.8644 764.201 78.1284 749.063 130.657C733.925 183.185 726.356 246.513 726.356 320.641C726.356 384.461 732.157 436.743 743.758 477.489C755.358 518.235 770.496 538.608 789.171 538.608C800.63 538.608 812.372 530.508 824.398 514.308C826.378 511.853 827.651 512.344 828.217 515.781C828.925 518.726 828.995 523.39 828.43 529.772L826.732 545.236C825.883 553.09 824.185 558.736 821.639 562.172C812.16 577.391 800.418 585 786.412 585C763.635 585 744.748 559.472 729.752 508.417C714.755 456.871 707.257 394.033 707.257 319.905C707.257 280.141 709.521 241.604 714.048 204.294C718.717 166.493 725.154 132.866 733.359 103.411C741.565 73.4647 751.963 49.4098 764.554 31.2459C777.145 13.082 790.868 4 805.723 4ZM793.627 415.634C798.013 415.634 802.115 408.761 805.935 395.015C809.896 381.27 812.585 364.333 813.999 344.205L819.941 249.213C820.507 226.631 819.729 209.203 817.607 196.93C815.485 184.166 812.302 177.785 808.057 177.785C801.125 177.785 794.971 193.739 789.595 225.649C784.219 257.559 781.248 296.095 780.682 341.26C780.541 365.806 781.602 384.461 783.865 397.224C786.27 409.497 789.524 415.634 793.627 415.634Z" stroke="black" stroke-width="8" mask="url(#path-1-outside-1_190_1650)"/>
<path d="M959.294 93.1014C959.294 81.8103 957.879 71.0101 955.05 60.7009C952.362 49.9007 951.018 42.046 951.018 37.1369V34.1914C951.018 26.3367 952.645 22.4094 955.898 22.4094H995.794C999.048 22.4094 1000.67 26.3367 1000.67 34.1914V37.1369C1000.67 42.046 999.189 49.9007 996.218 60.7009C993.247 71.0101 991.762 81.8103 991.762 93.1014L991.55 326.532C991.408 406.061 987.023 463.498 978.393 498.844C969.763 534.19 957.313 552.109 941.044 552.6C931.989 552.6 924.067 548.427 917.276 540.081C910.627 531.736 905.534 520.69 901.997 506.944C898.46 493.199 895.843 479.453 894.145 465.707C892.589 451.471 891.811 437.48 891.811 423.734C891.811 407.534 893.155 394.524 895.843 384.706C898.531 374.397 902.068 369.242 906.453 369.242C910.981 369.242 914.588 374.151 917.276 383.97C919.964 393.297 921.874 404.834 923.006 418.579C924.138 431.834 925.269 445.334 926.401 459.08C927.533 472.335 929.372 483.871 931.919 493.69C934.607 503.017 938.214 507.681 942.741 507.681C947.976 507.681 952.008 497.371 954.837 476.753C957.808 455.643 959.294 427.17 959.294 391.333V93.1014Z" stroke="black" stroke-width="8" mask="url(#path-1-outside-1_190_1650)"/>
<path d="M1088.49 552.6C1067.27 552.6 1049.44 526.826 1035.01 475.28C1020.58 423.734 1013.37 360.406 1013.37 285.295C1013.37 205.767 1020.23 140.966 1033.95 90.8923C1047.81 40.3278 1065.78 15.0456 1087.85 15.0456C1109.07 15.0456 1126.76 41.3097 1140.9 93.8378C1155.05 145.875 1162.13 210.185 1162.13 286.768C1162.13 363.842 1155.05 427.416 1140.9 477.489C1126.9 527.563 1109.43 552.6 1088.49 552.6ZM1097.4 504.735C1107.16 504.735 1115.01 492.217 1120.96 467.18C1126.9 442.143 1129.87 410.234 1129.87 371.451C1129.87 323.341 1127.54 275.722 1122.87 228.594C1118.2 180.976 1111.69 141.457 1103.34 110.038C1095 78.6193 1086.01 62.91 1076.39 62.91C1066.63 62.91 1058.85 75.1829 1053.05 99.7288C1047.39 124.275 1044.56 156.921 1044.56 197.667C1044.56 247.74 1046.82 296.341 1051.35 343.469C1056.02 390.597 1062.46 429.379 1070.66 459.816C1078.87 489.762 1087.78 504.735 1097.4 504.735Z" stroke="black" stroke-width="8" mask="url(#path-1-outside-1_190_1650)"/>
<path d="M1250.34 552.6C1229.12 552.6 1211.29 526.826 1196.86 475.28C1182.43 423.734 1175.22 360.406 1175.22 285.295C1175.22 205.767 1182.08 140.966 1195.8 90.8923C1209.67 40.3278 1227.63 15.0456 1249.7 15.0456C1270.92 15.0456 1288.61 41.3097 1302.76 93.8378C1316.9 145.875 1323.98 210.185 1323.98 286.768C1323.98 363.842 1316.9 427.416 1302.76 477.489C1288.75 527.563 1271.28 552.6 1250.34 552.6ZM1259.25 504.735C1269.02 504.735 1276.87 492.217 1282.81 467.18C1288.75 442.143 1291.72 410.234 1291.72 371.451C1291.72 323.341 1289.39 275.722 1284.72 228.594C1280.05 180.976 1273.54 141.457 1265.2 110.038C1256.85 78.6193 1247.86 62.91 1238.24 62.91C1228.48 62.91 1220.7 75.1829 1214.9 99.7288C1209.24 124.275 1206.41 156.921 1206.41 197.667C1206.41 247.74 1208.68 296.341 1213.2 343.469C1217.87 390.597 1224.31 429.379 1232.51 459.816C1240.72 489.762 1249.63 504.735 1259.25 504.735Z" stroke="black" stroke-width="8" mask="url(#path-1-outside-1_190_1650)"/>
<path d="M1471.21 473.807C1473.05 484.608 1475.03 493.69 1477.15 501.053C1479.41 508.417 1481.11 514.063 1482.24 517.99C1483.37 521.426 1483.94 525.599 1483.94 530.508V532.717C1483.94 541.063 1482.45 545.236 1479.48 545.236H1434.49C1431.38 545.236 1429.83 541.063 1429.83 532.717V530.508C1429.83 526.09 1430.67 520.935 1432.37 515.044C1434.07 509.153 1435.34 503.999 1436.19 499.581C1437.18 495.162 1437.04 487.799 1435.77 477.489L1401.6 277.932L1379.96 353.778V473.807C1379.96 485.589 1381.44 496.88 1384.41 507.681C1387.53 517.99 1389.08 525.599 1389.08 530.508V532.717C1389.08 541.063 1387.45 545.236 1384.2 545.236H1344.52C1341.4 545.236 1339.85 541.063 1339.85 532.717V530.508C1339.85 525.599 1341.19 517.99 1343.88 507.681C1346.57 496.88 1347.91 485.589 1347.91 473.807V93.1014C1347.91 81.8103 1346.57 71.0101 1343.88 60.7009C1341.19 49.9007 1339.85 42.046 1339.85 37.1369V34.1914C1339.85 26.3367 1341.4 22.4094 1344.52 22.4094H1384.2C1387.45 22.4094 1389.08 26.3367 1389.08 34.1914V37.1369C1389.08 42.046 1387.53 49.9007 1384.41 60.7009C1381.44 71.0101 1379.96 81.8103 1379.96 93.1014V286.032L1434.28 93.8378C1436.12 87.9468 1437.11 82.3012 1437.25 76.9011C1437.54 71.0101 1437.25 66.3464 1436.4 62.91C1435.7 58.9827 1434.85 54.5644 1433.86 49.6552C1433.01 44.7461 1432.58 40.5733 1432.58 37.1369V34.1914C1432.58 26.3367 1434.21 22.4094 1437.47 22.4094H1468.02C1471.14 22.4094 1472.69 26.3367 1472.69 34.1914V37.1369C1472.69 42.046 1471.77 46.9552 1469.93 51.8644C1468.24 56.7736 1465.76 63.1555 1462.51 71.0101C1459.25 78.3739 1456.49 85.9831 1454.23 93.8378L1423.67 200.612L1471.21 473.807Z" stroke="black" stroke-width="8" mask="url(#path-1-outside-1_190_1650)"/>
<path d="M1494.56 545.236C1491.44 545.236 1489.89 541.063 1489.89 532.717V530.508C1489.89 525.599 1491.23 517.99 1493.92 507.681C1496.61 496.88 1497.95 485.835 1497.95 474.544V93.1014C1497.95 81.8103 1496.61 71.0101 1493.92 60.7009C1491.23 49.9007 1489.89 42.046 1489.89 37.1369V34.1914C1489.89 26.3367 1491.44 22.4094 1494.56 22.4094H1534.24C1537.49 22.4094 1539.12 26.3367 1539.12 34.1914V37.1369C1539.12 42.046 1537.64 49.9007 1534.66 60.7009C1531.69 71.0101 1530.21 81.8103 1530.21 93.1014V256.577H1595.14V93.1014C1595.14 81.8103 1593.8 71.0101 1591.11 60.7009C1588.42 49.9007 1587.08 42.046 1587.08 37.1369V34.1914C1587.08 26.3367 1588.64 22.4094 1591.75 22.4094H1631.43C1634.69 22.4094 1636.31 26.3367 1636.31 34.1914V37.1369C1636.31 42.046 1634.76 49.9007 1631.64 60.7009C1628.67 71.0101 1627.19 81.8103 1627.19 93.1014V474.544C1627.19 485.835 1628.67 496.88 1631.64 507.681C1634.76 517.99 1636.31 525.599 1636.31 530.508V532.717C1636.31 541.063 1634.69 545.236 1631.43 545.236H1591.75C1588.64 545.236 1587.08 541.063 1587.08 532.717V530.508C1587.08 525.599 1588.42 517.99 1591.11 507.681C1593.8 496.88 1595.14 485.835 1595.14 474.544V305.177H1530.21L1530 474.544C1530 485.835 1531.48 496.88 1534.45 507.681C1537.56 517.99 1539.12 525.599 1539.12 530.508V532.717C1539.12 541.063 1537.49 545.236 1534.24 545.236H1494.56Z" stroke="black" stroke-width="8" mask="url(#path-1-outside-1_190_1650)"/>
<path d="M1782.98 474.544C1784.4 486.326 1786.66 497.126 1789.77 506.944C1793.03 516.763 1794.66 524.617 1794.66 530.508V532.717C1794.66 541.063 1793.1 545.236 1789.99 545.236H1743.51C1740.4 545.236 1738.84 541.063 1738.84 532.717V530.508C1738.84 525.599 1739.76 520.69 1741.6 515.781C1743.58 510.381 1745.28 504.49 1746.7 498.108C1748.11 491.235 1748.32 483.38 1747.33 474.544L1740.97 415.634H1681.76L1675.61 474.544C1674.62 483.38 1674.83 491.235 1676.24 498.108C1677.66 504.49 1679.28 510.381 1681.12 515.781C1683.1 520.69 1684.09 525.599 1684.09 530.508V532.717C1684.09 541.063 1682.47 545.236 1679.21 545.236H1651.41C1648.3 545.236 1646.74 541.063 1646.74 532.717V530.508C1646.74 524.617 1648.3 517.008 1651.41 507.681C1654.53 497.862 1656.79 486.817 1658.2 474.544L1700.43 98.256C1701.57 87.9468 1700.58 75.9193 1697.46 62.1736C1694.49 48.428 1693.01 40.0824 1693.01 37.1369V34.1914C1693.01 26.3367 1694.42 22.4094 1697.25 22.4094H1719.32C1725.26 22.4094 1729.58 32.9641 1732.27 54.0735L1782.98 474.544ZM1686.85 367.769H1735.87L1711.04 138.757L1686.85 367.769Z" stroke="black" stroke-width="8" mask="url(#path-1-outside-1_190_1650)"/>
<path d="M1808.52 545.236C1805.27 545.236 1803.64 541.063 1803.64 532.717V530.508C1803.64 525.599 1804.98 517.99 1807.67 507.681C1810.5 496.88 1811.92 485.835 1811.92 474.544V93.1014C1811.92 81.3194 1810.5 70.2738 1807.67 59.9645C1804.98 49.6553 1803.64 42.046 1803.64 37.1369V34.1914C1803.64 26.3367 1805.2 22.4094 1808.31 22.4094H1904.44C1908.26 22.4094 1910.45 29.5277 1911.02 43.7642L1916.11 129.92C1916.82 142.684 1915.33 149.066 1911.65 149.066H1910.59C1908.47 149.066 1906.14 144.893 1903.59 136.548C1901.19 127.711 1898.99 118.384 1897.01 108.565C1895.17 98.256 1892.77 88.9286 1889.8 80.583C1886.83 71.7465 1883.78 67.3282 1880.67 67.3282H1852.66C1847.14 67.3282 1844.38 77.6375 1844.38 98.256V277.932H1872.82C1874.8 277.932 1876.64 275.232 1878.34 269.831C1880.18 263.94 1881.59 257.559 1882.58 250.686C1883.57 243.813 1884.7 237.676 1885.98 232.276C1887.25 226.385 1888.52 223.44 1889.8 223.44H1891.49C1893.9 223.44 1895.1 228.84 1895.1 239.64V358.196C1895.1 368.506 1893.9 373.66 1891.49 373.66H1889.8C1888.52 373.66 1887.25 370.96 1885.98 365.56C1884.7 360.16 1883.57 354.269 1882.58 347.887C1881.59 341.505 1880.18 335.614 1878.34 330.214C1876.64 324.814 1874.8 322.114 1872.82 322.114H1844.38V474.544C1844.38 485.835 1845.87 496.88 1848.84 507.681C1851.95 517.99 1853.51 525.599 1853.51 530.508V532.717C1853.51 541.063 1851.81 545.236 1848.42 545.236H1808.52Z" stroke="black" stroke-width="8" mask="url(#path-1-outside-1_190_1650)"/>
<path d="M1997.64 552.6C1976.42 552.6 1958.59 526.826 1944.16 475.28C1929.73 423.734 1922.51 360.406 1922.51 285.295C1922.51 205.767 1929.38 140.966 1943.1 90.8923C1956.96 40.3278 1974.93 15.0456 1997 15.0456C2018.22 15.0456 2035.91 41.3097 2050.05 93.8378C2064.2 145.875 2071.27 210.185 2071.27 286.768C2071.27 363.842 2064.2 427.416 2050.05 477.489C2036.05 527.563 2018.57 552.6 1997.64 552.6ZM2006.55 504.735C2016.31 504.735 2024.16 492.217 2030.1 467.18C2036.05 442.143 2039.02 410.234 2039.02 371.451C2039.02 323.341 2036.68 275.722 2032.01 228.594C2027.35 180.976 2020.84 141.457 2012.49 110.038C2004.14 78.6193 1995.16 62.91 1985.54 62.91C1975.78 62.91 1968 75.1829 1962.2 99.7288C1956.54 124.275 1953.71 156.921 1953.71 197.667C1953.71 247.74 1955.97 296.341 1960.5 343.469C1965.17 390.597 1971.61 429.379 1979.81 459.816C1988.02 489.762 1996.93 504.735 2006.55 504.735Z" stroke="black" stroke-width="8" mask="url(#path-1-outside-1_190_1650)"/>
<path d="M2207.26 474.544C2209.09 484.362 2211.29 492.953 2213.83 500.317C2216.52 507.19 2218.64 512.835 2220.2 517.254C2221.76 521.181 2222.53 525.599 2222.53 530.508V532.717C2222.53 541.063 2220.91 545.236 2217.65 545.236H2173.3C2170.19 545.236 2168.63 541.063 2168.63 532.717V530.508C2168.63 526.09 2169.41 521.181 2170.97 515.781C2172.67 509.89 2173.8 504.735 2174.36 500.317C2175.07 495.408 2174.72 486.817 2173.3 474.544L2151.02 346.414L2127.68 347.887V474.544C2127.68 485.835 2129.16 496.88 2132.13 507.681C2135.25 517.99 2136.8 525.599 2136.8 530.508V532.717C2136.8 541.063 2135.1 545.236 2131.71 545.236H2091.81C2088.7 545.236 2087.14 541.063 2087.14 532.717V530.508C2087.14 525.599 2088.49 517.99 2091.18 507.681C2093.86 496.88 2095.21 485.835 2095.21 474.544V93.1014C2095.21 81.8103 2093.86 71.0101 2091.18 60.7009C2088.49 49.9007 2087.14 42.046 2087.14 37.1369V34.1914C2087.14 26.3367 2088.7 22.4094 2091.81 22.4094H2144.23C2163.89 22.4094 2179.46 36.4005 2190.92 64.3827C2202.52 92.365 2208.39 133.357 2208.53 187.357C2208.53 217.303 2205.98 245.04 2200.89 270.568C2195.94 295.605 2188.79 314.996 2179.46 328.741L2207.26 474.544ZM2139.56 302.968H2148.69C2156.75 302.968 2163.19 294.377 2168 277.195C2172.95 259.522 2175.42 233.749 2175.42 199.876C2175.42 159.621 2172.03 127.466 2165.24 103.411C2158.59 79.3557 2150.88 67.3282 2142.11 67.3282H2134.89C2130.08 67.3282 2127.68 78.3739 2127.68 100.465V253.631C2127.68 271.304 2128.6 284.068 2130.44 291.923C2132.42 299.286 2135.46 302.968 2139.56 302.968Z" stroke="black" stroke-width="8" mask="url(#path-1-outside-1_190_1650)"/>
<path d="M2249.19 552.6C2243.53 552.6 2238.86 547.445 2235.18 537.136C2231.5 526.335 2229.66 511.117 2229.66 491.48C2229.66 471.844 2231.5 456.871 2235.18 446.562C2238.86 435.761 2243.53 430.361 2249.19 430.361C2254.7 430.361 2259.3 435.761 2262.98 446.562C2266.66 456.871 2268.5 471.844 2268.5 491.48C2268.5 511.117 2266.66 526.335 2262.98 537.136C2259.3 547.445 2254.7 552.6 2249.19 552.6Z" stroke="black" stroke-width="8" mask="url(#path-1-outside-1_190_1650)"/>
<path d="M2290.97 545.236C2287.71 545.236 2286.09 541.063 2286.09 532.717V530.508C2286.09 525.599 2287.43 517.99 2290.12 507.681C2292.95 496.88 2294.36 485.835 2294.36 474.544V93.1014C2294.36 81.8103 2292.95 71.0101 2290.12 60.7009C2287.43 49.9007 2286.09 42.046 2286.09 37.1369V34.1914C2286.09 26.3367 2287.71 22.4094 2290.97 22.4094H2339.35C2367.08 22.4094 2389.29 46.9552 2405.99 96.0469C2422.68 145.139 2431.03 207.976 2431.03 284.559C2431.03 363.106 2423.46 426.188 2408.32 473.807C2393.32 521.426 2373.66 545.236 2349.33 545.236H2290.97ZM2341.69 500.317H2352.51C2365.81 500.317 2376.63 485.344 2384.98 455.398C2393.47 425.452 2397.71 384.215 2397.71 331.687C2397.71 258.54 2391.98 196.194 2380.52 144.648C2369.2 93.1014 2355.2 67.3282 2338.5 67.3282H2334.47C2328.81 67.3282 2325.98 77.6375 2325.98 98.256V436.989C2325.98 457.116 2327.33 472.826 2330.01 484.117C2332.84 494.917 2336.73 500.317 2341.69 500.317Z" stroke="black" stroke-width="8" mask="url(#path-1-outside-1_190_1650)"/>
<path d="M2451.16 545.236C2447.91 545.236 2446.28 541.063 2446.28 532.717V530.508C2446.28 525.599 2447.63 517.99 2450.31 507.681C2453.14 496.88 2454.56 485.589 2454.56 473.807V93.8378C2454.56 81.5648 2453.14 70.2738 2450.31 59.9645C2447.63 49.6553 2446.28 42.046 2446.28 37.1369V34.1914C2446.28 26.3367 2447.84 22.4094 2450.95 22.4094H2545.6C2549.42 22.4094 2551.61 29.2822 2552.17 43.0279L2557.27 129.184C2557.97 141.948 2556.56 148.33 2553.02 148.33H2551.75C2549.63 148.33 2547.29 144.157 2544.75 135.811C2542.34 126.975 2540.15 117.647 2538.17 107.829C2536.33 97.5196 2533.92 88.1922 2530.95 79.8466C2528.12 71.0101 2525.15 66.5919 2522.04 66.5919H2494.88C2489.22 66.5919 2486.39 77.1466 2486.39 98.256V256.577H2513.76C2516.17 256.577 2518.22 253.877 2519.92 248.477C2521.76 242.586 2523.1 236.449 2523.95 230.067C2524.8 223.194 2525.79 217.058 2526.92 211.658C2528.19 205.767 2529.4 202.821 2530.53 202.821H2532.23C2534.63 202.821 2535.83 207.976 2535.83 218.285V336.842C2535.83 347.151 2534.63 352.305 2532.23 352.305H2530.53C2529.4 352.305 2528.19 349.605 2526.92 344.205C2525.79 338.805 2524.8 333.16 2523.95 327.269C2523.1 320.887 2521.76 314.996 2519.92 309.596C2518.22 304.196 2516.17 301.496 2513.76 301.496H2486.39L2486.18 455.398C2486.18 467.671 2487.1 478.471 2488.94 487.799C2490.77 496.635 2493.6 501.053 2497.42 501.053H2528.62C2531.73 501.053 2534.63 496.635 2537.32 487.799C2540.15 478.962 2542.34 469.144 2543.9 458.344C2545.6 447.543 2547.65 437.725 2550.05 428.888C2552.46 420.052 2554.86 415.634 2557.27 415.634H2558.96C2560.38 415.634 2561.44 417.597 2562.15 421.525C2562.86 425.452 2563.07 429.87 2562.78 434.78L2558.12 523.881C2557.27 538.118 2555 545.236 2551.33 545.236H2451.16Z" stroke="black" stroke-width="8" mask="url(#path-1-outside-1_190_1650)"/>
<path d="M2713.12 22.4094C2716.37 22.4094 2718 26.3367 2718 34.1914V37.1369C2718 42.537 2716.44 49.9007 2713.33 59.2281C2710.22 68.5555 2707.88 79.8466 2706.33 93.1014L2655.4 514.308C2652.85 534.927 2648.61 545.236 2642.67 545.236C2637.57 545.236 2633.75 535.663 2631.21 516.517L2574.97 93.8378C2573.41 81.5648 2571.08 70.5192 2567.97 60.7009C2565 50.8825 2563.51 43.0279 2563.51 37.1369V34.1914C2563.51 26.3367 2565.21 22.4094 2568.6 22.4094H2616.14C2619.39 22.4094 2621.02 26.3367 2621.02 34.1914V37.1369C2621.02 41.0642 2620.38 45.237 2619.11 49.6552C2617.84 53.5826 2616.56 57.2645 2615.29 60.7009C2614.02 64.1373 2612.96 68.801 2612.11 74.692C2611.4 80.583 2611.47 86.9649 2612.32 93.8378L2651.58 422.261L2688.71 93.1014C2689.71 84.2649 2689.42 76.6557 2687.87 70.2737C2686.31 63.4009 2684.47 57.2645 2682.35 51.8644C2680.37 46.4643 2679.38 41.5551 2679.38 37.1369V34.1914C2679.38 26.3367 2681 22.4094 2684.26 22.4094H2713.12Z" stroke="black" stroke-width="8" mask="url(#path-1-outside-1_190_1650)"/>
</svg>
