<?xml version="1.0" standalone="no"?>
<!DOCTYPE svg PUBLIC "-//W3C//DTD SVG 20010904//EN"
 "http://www.w3.org/TR/2001/REC-SVG-20010904/DTD/svg10.dtd">
<svg version="1.0" xmlns="http://www.w3.org/2000/svg"
 width="1113.000000pt" height="208.000000pt" viewBox="0 0 1113.000000 208.000000"
 preserveAspectRatio="xMidYMid meet">
<metadata>
Created by potrace 1.16, written by Peter Selinger 2001-2019
</metadata>
<g transform="translate(0.000000,208.000000) scale(0.100000,-0.100000)"
fill="#000000" stroke="none">
<path d="M592 1869 c-69 -34 -104 -71 -138 -144 l-24 -50 0 -626 0 -626 31
-61 c34 -69 71 -104 144 -138 l50 -24 626 0 626 0 61 31 c69 34 104 71 138
144 l24 50 0 625 0 625 -24 50 c-34 73 -69 110 -138 144 l-61 31 -627 0 -627
0 -61 -31z m648 -754 c0 -600 0 -605 -21 -626 -18 -18 -28 -20 -82 -14 -34 3
-73 14 -87 24 -49 35 -51 58 -48 575 3 477 3 481 25 523 37 68 116 120 186
122 l27 1 0 -605z m318 26 c-3 -571 -3 -580 -24 -608 -31 -41 -80 -66 -131
-66 -83 0 -78 -36 -78 566 0 526 0 532 22 572 38 72 102 114 176 115 l37 0 -2
-579z m212 222 c47 -19 79 -50 101 -98 17 -36 19 -71 19 -391 0 -348 0 -351
-23 -395 -16 -31 -39 -54 -77 -76 -54 -33 -55 -33 -185 -33 l-130 1 40 21 c22
11 57 36 78 56 65 62 67 82 67 539 l0 404 38 -7 c20 -4 53 -13 72 -21z m-870
-380 c0 -237 5 -416 11 -443 13 -58 48 -103 107 -137 l47 -28 -117 -3 c-130
-3 -166 8 -220 65 -56 59 -58 72 -58 440 0 322 1 339 21 380 33 68 110 120
182 122 l27 1 0 -397z"/>
<path d="M3290 1428 l-1 -253 -19 27 c-29 38 -106 84 -174 103 -79 23 -209 16
-289 -15 -124 -47 -232 -186 -273 -350 -23 -93 -15 -331 14 -413 51 -142 130
-234 249 -290 64 -30 75 -32 178 -32 143 0 198 19 278 95 l57 56 0 -68 0 -68
155 0 155 0 0 730 0 730 -165 0 -165 0 0 -252z m-125 -377 c94 -42 139 -138
139 -291 -1 -108 -12 -157 -50 -216 -38 -59 -85 -87 -154 -92 -105 -8 -178 35
-221 130 -21 47 -24 68 -24 178 0 117 2 129 28 183 29 59 75 102 124 117 47
14 116 10 158 -9z"/>
<path d="M8160 950 l0 -730 155 0 155 0 0 72 0 73 27 -38 c61 -86 187 -133
336 -124 75 4 99 10 161 40 125 62 209 173 251 332 22 81 22 288 1 370 -29
108 -80 197 -150 263 -93 86 -149 107 -296 107 -103 0 -121 -3 -171 -26 -30
-14 -74 -44 -97 -66 l-42 -40 0 249 0 248 -165 0 -165 0 0 -730z m614 108 c95
-29 156 -143 156 -294 0 -149 -44 -248 -130 -292 -65 -34 -161 -28 -219 12
-135 94 -149 410 -24 528 57 54 134 71 217 46z"/>
<path d="M9280 1555 l0 -125 165 0 165 0 0 125 0 125 -165 0 -165 0 0 -125z"/>
<path d="M9650 950 l0 -730 155 0 155 0 0 72 0 73 27 -38 c61 -86 187 -133
336 -124 75 4 99 10 161 40 125 62 209 173 251 332 22 81 22 288 1 370 -29
108 -80 197 -150 263 -93 86 -149 107 -296 107 -103 0 -121 -3 -171 -26 -30
-14 -74 -44 -97 -66 l-42 -40 0 249 0 248 -165 0 -165 0 0 -730z m614 108 c95
-29 156 -143 156 -294 0 -149 -44 -248 -130 -292 -65 -34 -161 -28 -219 12
-135 94 -149 410 -24 528 57 54 134 71 217 46z"/>
<path d="M4195 1313 c-76 -17 -151 -66 -200 -130 l-35 -46 0 82 0 81 -155 0
-155 0 0 -534 0 -534 23 -6 c12 -3 86 -6 165 -6 l142 0 0 298 c0 183 4 312 11
337 16 60 55 104 116 132 45 21 69 25 145 24 50 0 92 -2 94 -4 3 -2 -2 -33
-11 -68 -20 -85 -20 -276 0 -354 63 -247 253 -384 533 -385 230 0 422 98 503
258 l26 51 7 -46 c20 -151 172 -263 355 -263 121 0 251 49 311 116 l28 32 7
-46 c13 -89 -16 -82 355 -82 l330 0 0 328 c0 369 3 392 67 456 65 64 155 70
219 14 18 -16 38 -46 44 -66 6 -22 10 -179 10 -384 l0 -348 164 0 165 0 3 338
c3 319 4 339 24 382 66 140 239 159 297 32 21 -45 22 -63 25 -399 l4 -353 159
0 159 0 0 398 c0 429 -4 471 -54 550 -60 96 -147 142 -282 149 -140 8 -235
-27 -342 -125 l-42 -39 -24 38 c-75 113 -255 159 -420 109 -51 -16 -79 -33
-126 -76 l-60 -56 0 66 0 66 -160 0 -160 0 0 -532 c-1 -424 -3 -529 -13 -513
-9 14 -13 129 -17 410 l-5 390 -28 57 c-70 142 -214 208 -452 208 -113 0 -207
-20 -290 -61 -100 -49 -190 -154 -209 -245 l-7 -31 151 -18 c83 -10 152 -16
153 -14 2 2 15 25 30 51 19 33 39 52 73 68 86 42 207 22 238 -39 22 -41 20
-64 -6 -89 -33 -30 -66 -40 -227 -68 -169 -28 -247 -52 -322 -97 -62 -37 -113
-111 -123 -181 l-7 -43 -52 4 c-29 2 -103 7 -164 11 l-113 7 -8 -25 c-14 -39
-62 -91 -99 -106 -18 -8 -61 -14 -96 -14 -72 0 -126 28 -166 85 -25 36 -51
114 -51 152 l0 23 387 0 386 0 -6 103 c-12 177 -53 285 -148 380 -109 109
-250 154 -449 144 -123 -6 -211 -34 -298 -94 -54 -36 -132 -129 -149 -176 -5
-14 -10 32 -13 123 l-5 145 -70 2 c-38 0 -79 -1 -90 -4z m761 -232 c63 -29
124 -117 124 -180 0 -8 -62 -11 -216 -11 l-216 0 7 33 c10 44 38 98 67 124 57
53 159 68 234 34z m1139 -477 c-17 -117 -139 -201 -263 -181 -83 14 -126 109
-80 176 34 51 73 69 194 92 60 11 118 23 129 28 18 7 20 4 23 -33 2 -23 1 -60
-3 -82z"/>
<path d="M9280 760 l0 -540 165 0 165 0 0 540 0 540 -165 0 -165 0 0 -540z"/>
</g>
</svg>
